<?xml version='1.0' encoding='utf-8'?>
<svg width="345.4039518455mm" height="513.0000000002mm" viewBox="-8.5830034828 -12.1051346847 16.2521967718 24.1380473483" version="1.1" xmlns="http://www.w3.org/2000/svg">
  <g transform="scale(1,-1)" stroke-linecap="round">
    <g fill="none" stroke="rgb(64,192,64)" stroke-width="0.047052723875812094" id="Visible">
      <path d="M 1.055690217,-2.3931846247 A 5.49747406587666,3.936373146573304 -158.5836603889345 0,1 0.8710257534,-2.7634516546" />
      <line x1="0.7472312122" y1="-2.4478301966" x2="1.055690217" y2="-2.3931846247" />
      <line x1="1.4888900949" y1="-4.3387331048" x2="0.7472312122" y2="-2.4478301966" />
      <line x1="1.4888900949" y1="-4.9681514435" x2="1.4888900949" y2="-4.3387331048" />
      <line x1="2.6661938761" y1="-0.5946305742" x2="1.2821815635" y2="2.7870202496" />
      <path d="M 1.2821815635,2.7870202496 A 0.5,0.33603249704448884 180.0 0,0 1.2642772521,2.8761385692" />
      <path d="M 1.2642772521,2.8761385692 A 0.5,0.33603249704448884 180.0 0,0 1.2908170161,2.9841622351" />
      <line x1="1.2908170161" y1="2.9841622351" x2="2.4867328847" y2="5.3516501858" />
      <path d="M 2.4867328847,5.3516501858 A 0.5,0.33603249704448884 0.0 0,1 2.5132726487,5.4596738516" />
      <path d="M 2.5132726487,5.4596738516 A 0.5,0.33603249704448884 0.0 0,1 2.4119736449,5.6624521496" />
      <line x1="2.4119736449" y1="5.6624521496" x2="-4.0659721397" y2="11.4153373276" />
      <path d="M -4.0659721397,11.4153373276 A 2.5,1.6801624852224442 0.0 0,1 -8.5594771209,10.4014458376" />
      <path d="M -8.5594771209,10.4014458376 A 2.5,1.6801624852224442 0.0 0,1 -8.0529821021,9.3875543476" />
      <line x1="-8.0529821021" y1="9.3875543476" x2="-2.0630173431" y2="4.0680316741" />
      <path d="M -2.0630173431,4.0680316741 A 0.5,0.33603249704448884 180.0 0,0 -1.9782337801,3.9509058934" />
      <line x1="-1.9782337801" y1="3.9509058934" x2="1.3090441199" y2="-4.4302023036" />
      <line x1="1.3090441199" y1="-4.4302023036" x2="1.4888900949" y2="-4.3387331048" />
      <path d="M -5.6068907644,9.9995163635 A 0.75,0.5040487455667333 180.0 0,0 -6.8094771209,10.4014458376" />
      <path d="M -6.8094771209,10.4014458376 A 0.75,0.5040487455667333 180.0 0,0 -5.3094771209,10.4014458376" />
      <path d="M -5.3094771209,10.4014458376 A 0.75,0.5040487455667333 180.0 0,0 -5.6068907644,9.9995163635" />
      <path d="M 1.0310424641,4.1045507444 A 0.75,0.5040487455667333 180.0 0,0 -0.1715438924,4.5064802185" />
      <path d="M -0.1715438924,4.5064802185 A 0.75,0.5040487455667333 180.0 0,0 1.3284561076,4.5064802185" />
      <path d="M 1.3284561076,4.5064802185 A 0.75,0.5040487455667333 180.0 0,0 1.0310424641,4.1045507444" />
      <path d="M 5.5519819335,0.727141021 A 5.49747406587666,3.936373146573304 -158.5836603889345 0,1 1.055690217,-2.3931846247" />
      <line x1="5.8614120514" y1="0.5585627467" x2="5.5519819335" y2="0.727141021" />
      <line x1="1.3125630229" y1="-6.3178335716" x2="1.3121817615" y2="-6.3168615233" />
      <line x1="1.3121817615" y1="-6.3168615233" x2="1.3090441199" y2="-6.3184573197" />
      <line x1="1.3125630229" y1="-6.3178335716" x2="1.3090441199" y2="-6.3184573197" />
      <path d="M 1.5070415762,-7.2359556998 A 5.49747411881532,3.936229146598789 21.427305495245005 0,0 1.3125630228,-6.3178335716" />
      <line x1="1.3090441199" y1="-6.3184573197" x2="1.3090441199" y2="-10.2430657845" />
      <line x1="2.6034496213" y1="-10.0136240892" x2="1.3090441199" y2="-10.2430657845" />
      <line x1="-1.9782337801" y1="-1.8619575875" x2="1.3090441199" y2="-10.2430657845" />
      <path d="M -2.0630173431,-1.7448318068 A 0.5,0.33603249704448884 180.0 0,0 -1.9782337801,-1.8619575875" />
      <line x1="-8.0529821021" y1="3.5746908667" x2="-2.0630173431" y2="-1.7448318068" />
      <path d="M -8.5594771209,4.5885823567 A 2.5,1.6801624852224442 0.0 0,1 -8.0529821021,3.5746908667" />
      <path d="M 7.3362368091,-11.9497899143 A 5.49747406587665,3.9363731465732967 21.416339611065496 0,0 2.5277839763,-9.8383984266" />
      <path d="M 2.5277839763,-9.8383984266 A 5.49747406587665,3.9363731465732967 21.416339611065496 0,0 7.3362368091,-3.8219216438" />
      <line x1="7.3362368091" y1="-3.8219216438" x2="5.5519819335" y2="0.727141021" />
      <path d="M 1.4888900949,-4.9681514435 Q 1.3098884865,-5.6039209035 1.3090441199,-6.1703588871" />
      <path d="M 1.3090441199,-6.1703588871 L 1.3121817615,-6.3168615233" />
      <line x1="7.645666927" y1="-3.9904999181" x2="7.3362368091" y2="-3.8219216438" />
      <line x1="7.645666927" y1="-3.9904999181" x2="5.8614120514" y2="0.5585627467" />
      <line x1="7.3362368091" y1="-4.4220243134" x2="7.645666927" y2="-3.9904999181" />
      <line x1="7.645666927" y1="-4.7439134866" x2="7.3362368091" y2="-4.4220243134" />
      <line x1="7.645666927" y1="-4.7439134866" x2="7.4546457639" y2="-4.2568938052" />
      <line x1="7.3362368091" y1="-5.175437882" x2="7.645666927" y2="-4.7439134866" />
      <line x1="7.645666927" y1="-5.4973270552" x2="7.3362368091" y2="-5.175437882" />
      <line x1="7.645666927" y1="-5.4973270552" x2="7.4546457639" y2="-5.0103073737" />
      <line x1="7.3362368091" y1="-5.9288514506" x2="7.645666927" y2="-5.4973270552" />
      <line x1="7.645666927" y1="-6.2507406238" x2="7.3362368091" y2="-5.9288514506" />
      <line x1="7.645666927" y1="-6.2507406238" x2="7.4546457639" y2="-5.7637209423" />
      <line x1="7.3362368091" y1="-6.6818403468" x2="7.645666927" y2="-6.2507406238" />
      <line x1="7.645666927" y1="-7.0033048477" x2="7.3362368091" y2="-6.6818403468" />
      <line x1="7.645666927" y1="-7.0033048477" x2="7.4547946901" y2="-6.5166648622" />
      <line x1="7.3362368091" y1="-7.4344045707" x2="7.645666927" y2="-7.0033048477" />
      <line x1="7.645666927" y1="-7.7558690716" x2="7.3362368091" y2="-7.4344045707" />
      <line x1="7.645666927" y1="-7.7558690716" x2="7.4547946901" y2="-7.2692290862" />
      <line x1="7.3362368091" y1="-8.1869687947" x2="7.645666927" y2="-7.7558690716" />
      <line x1="7.645666927" y1="-8.5084332956" x2="7.3362368091" y2="-8.1869687947" />
      <line x1="7.645666927" y1="-8.5084332956" x2="7.4547946901" y2="-8.0217933101" />
      <line x1="7.3362368091" y1="-8.9395330186" x2="7.645666927" y2="-8.5084332956" />
      <line x1="7.645666927" y1="-9.2609975195" x2="7.3362368091" y2="-8.9395330186" />
      <line x1="7.645666927" y1="-9.2609975195" x2="7.4547946901" y2="-8.774357534" />
      <line x1="7.3362368091" y1="-9.6920972425" x2="7.645666927" y2="-9.2609975195" />
      <line x1="7.645666927" y1="-10.0135617434" x2="7.3362368091" y2="-9.6920972425" />
      <line x1="7.645666927" y1="-10.0135617434" x2="7.4547946901" y2="-9.5269217579" />
      <line x1="7.3362368091" y1="-10.4446614665" x2="7.645666927" y2="-10.0135617434" />
      <line x1="7.645666927" y1="-10.7661259673" x2="7.3362368091" y2="-10.4446614665" />
      <line x1="7.645666927" y1="-10.7661259673" x2="7.4547946901" y2="-10.2794859819" />
      <line x1="7.3362368091" y1="-11.1972256904" x2="7.645666927" y2="-10.7661259673" />
      <line x1="7.645666927" y1="-11.5186901913" x2="7.3362368091" y2="-11.1972256904" />
      <line x1="7.645666927" y1="-11.5186901913" x2="7.4547946901" y2="-11.0320502058" />
      <line x1="7.3362368091" y1="-11.9497899143" x2="7.645666927" y2="-11.5186901913" />
      <line x1="1.3090441199" y1="-6.1703588871" x2="1.3090441199" y2="-6.3184573197" />
      <line x1="1.3090441199" y1="-4.4302023036" x2="1.3090441199" y2="-6.1703588871" />
      <line x1="1.2908170161" y1="2.9841622351" x2="1.2908170161" y2="2.7659206648" />
      <line x1="2.4867328847" y1="5.3516501858" x2="2.4867328847" y2="-0.1561414049" />
      <line x1="-1.9782337801" y1="-1.8619575875" x2="-1.9782337801" y2="3.9509058934" />
      <line x1="-2.0630173431" y1="4.0680316741" x2="-2.0630173431" y2="-1.7448318068" />
      <line x1="-8.0529821021" y1="3.5746908667" x2="-8.0529821021" y2="9.3875543476" />
      <line x1="1.5070243322" y1="-7.2359117246" x2="2.5277839763" y2="-9.8383984266" />
      <line x1="-8.5594771209" y1="4.5885823567" x2="-8.5594771209" y2="10.4014458376" />
      <line x1="2.5132726487" y1="5.4596738516" x2="2.5132726487" y2="-0.220987804" />
    </g>
  </g>
</svg>