<?xml version='1.0' encoding='utf-8'?>
<svg width="424.6817356401mm" height="512.9999999997mm" viewBox="-19.0023072722 -28.2386662561 44.3305615884 53.5496965994" version="1.1" xmlns="http://www.w3.org/2000/svg">
  <g transform="scale(1,-1)" stroke-linecap="round">
    <g fill="none" stroke="rgb(64,192,64)" stroke-width="0.10438537348817467" id="Visible">
      <line x1="-0.2994559223" y1="19.038076806" x2="-0.2994559223" y2="10.3389895456" />
      <line x1="-0.299456008" y1="10.3389895719" x2="-8.6833696037" y2="4.9803732025" />
      <line x1="-8.6833696037" y1="4.9803732025" x2="-8.6833696037" y2="4.94450886" />
      <path d="M -8.6833696037,4.94450886 A 1.27,0.6485001761271683 -107.05786794684613 0,1 -9.4066608384,3.3435368092" />
      <line x1="-9.4066608384" y1="3.3435368092" x2="-9.4066608384" y2="1.3656455811" />
      <path d="M -9.4066608384,1.3656455811 A 1.27,0.6485001761271683 -107.05786794684613 0,1 -9.0559081144,0.613809051" />
      <path d="M -9.0559081144,0.613809051 A 1.27,0.6485001761271683 -107.05786794684613 0,1 -8.6833696037,0.6892632713" />
      <line x1="-8.6833696037" y1="0.6892632713" x2="-2.4693297122" y2="4.6609950291" />
      <line x1="-2.4693297122" y1="4.6609950291" x2="-2.4693297122" y2="-16.9415939327" />
      <line x1="-2.4693297122" y1="-16.9415939327" x2="-8.6833696037" y2="-20.9133256905" />
      <path d="M -8.6833696037,-20.9133256905 A 1.27,0.6485001761271683 -107.05786794684613 0,1 -9.4066608384,-22.5142977413" />
      <line x1="-9.4066608384" y1="-22.5142977413" x2="-9.4066608384" y2="-24.4921889694" />
      <path d="M -9.4066608384,-24.4921889694 A 1.27,0.6485001761271683 -107.05786794684613 0,1 -9.0559081144,-25.2440254995" />
      <path d="M -9.0559081144,-25.2440254995 A 1.27,0.6485001761271683 -107.05786794684613 0,1 -8.6833696037,-25.1685712791" />
      <line x1="-8.6833696037" y1="-25.1685712791" x2="1.2917847084" y2="-18.7929061946" />
      <line x1="1.2917847084" y1="20.0551255475" x2="1.2917847084" y2="-18.7929061946" />
      <line x1="1.2917847084" y1="20.0551255475" x2="-0.299456008" y2="19.0380768323" />
      <path d="M -6.4166773877,4.2656526678 A 0.649999999999999,0.33190953896272346 72.94213205315386 0,0 -5.855819644,5.1236661137" />
      <path d="M -5.855819644,5.1236661137 A 0.6500000000351469,0.331909538980671 72.94213205315386 1,0 -6.2371582771,3.8808544437" />
      <path d="M -6.2371582771,3.8808544437 A 0.649999999999999,0.33190953896272346 72.94213205315386 0,0 -6.4166773877,4.2656526678" />
      <path d="M -6.4166773877,-21.5921818827 A 0.65,0.33190953896272396 72.94213205315386 0,0 -5.855819644,-20.7341684368" />
      <path d="M -5.855819644,-20.7341684368 A 0.65,0.33190953896272396 72.94213205315386 1,0 -6.2371582771,-21.9769801067" />
      <path d="M -6.2371582771,-21.9769801067 A 0.65,0.33190953896272396 72.94213205315386 0,0 -6.4166773877,-21.5921818827" />
      <line x1="-13.5903556799" y1="-13.3513467876" x2="-13.5903556799" y2="-13.1495920657" />
      <line x1="-18.9501145854" y1="-14.0872723669" x2="-18.9501145854" y2="24.7607593752" />
      <line x1="-13.5903556799" y1="28.1864735693" x2="-18.9501145854" y2="24.7607593752" />
      <line x1="11.8733421618" y1="-13.918286503" x2="23.2637553072" y2="-6.6380523214" />
      <line x1="23.2637553072" y1="-12.267994424" x2="23.2637553072" y2="-6.6380523214" />
      <line x1="23.2637553072" y1="-12.267994424" x2="25.2760616295" y2="-10.9818197186" />
      <line x1="25.2760616295" y1="-10.9818197186" x2="25.2760616295" y2="-2.2137908987" />
      <line x1="10.16478019" y1="-11.872234913" x2="25.2760616295" y2="-2.2137908987" />
      <line x1="10.16478019" y1="-11.872234913" x2="10.16478019" y2="-20.6402637329" />
      <line x1="11.8733421618" y1="-19.5482286056" x2="10.16478019" y2="-20.6402637329" />
      <line x1="11.8733421618" y1="-13.918286503" x2="11.8733421618" y2="-19.5482286056" />
      <line x1="-9.8291202353" y1="21.9621152991" x2="-0.2994559223" y2="19.038076806" />
      <line x1="1.2917847941" y1="20.0551255211" x2="1.6287952865" y2="19.9517187673" />
      <line x1="1.6287952865" y1="19.9517187673" x2="5.3973134756" y2="22.3603842462" />
      <line x1="5.3973134756" y1="22.3603842462" x2="-13.5903556799" y2="28.1864735693" />
      <line x1="-18.9501145854" y1="24.7607593752" x2="-14.0869611974" y2="23.2685716928" />
      <line x1="-14.0869611974" y1="23.2685716928" x2="-13.9656532974" y2="23.3461061868" />
      <line x1="-13.9656532974" y1="23.3461061868" x2="-14.651502571" y2="25.0202028319" />
      <line x1="-14.651502571" y1="25.0202028319" x2="-12.0994805058" y2="26.6513393003" />
      <line x1="-12.0994805058" y1="26.6513393003" x2="-3.3755026125" y2="23.9745139331" />
      <line x1="-3.3755026125" y1="23.9745139331" x2="-5.9275246777" y2="22.3433774647" />
      <line x1="-5.9275246777" y1="22.3433774647" x2="-9.7078123353" y2="22.0396497932" />
      <line x1="-9.7078123353" y1="22.0396497932" x2="-9.8291202353" y2="21.9621152991" />
      <path d="M 2.3735882723,21.6718877734 A 1.4,0.6199886134125174 179.99999999999986 0,0 -0.1771795553,22.024984096" />
      <path d="M -0.1771795553,22.024984096 A 1.4,0.6199886134125174 179.99999999999986 0,0 2.6228204447,22.024984096" />
      <path d="M 2.6228204447,22.024984096 A 1.4,0.6199886134125174 179.99999999999986 0,0 2.3735882723,21.6718877734" />
      <line x1="-14.0869611974" y1="-15.5794600493" x2="-14.0869611974" y2="2.1575143057" />
      <line x1="-14.0869611974" y1="8.5248811133" x2="-14.0869611974" y2="23.2685716928" />
      <line x1="-13.9656532974" y1="-15.5019255552" x2="-14.0869611974" y2="-15.5794600493" />
      <line x1="-13.9656532974" y1="23.3461061868" x2="-13.9656532974" y2="8.6024156073" />
      <line x1="-13.9656532974" y1="2.120292746" x2="-13.9656532974" y2="-15.5019255552" />
      <line x1="-18.9501145854" y1="-14.0872723669" x2="-14.0869611974" y2="-15.5794600493" />
      <line x1="-9.8671228897" y1="0.8627184723" x2="-9.8671228897" y2="-14.6716890017" />
      <line x1="-9.8671228897" y1="-14.6716890017" x2="-2.4693297122" y2="-16.9415939327" />
      <path d="M -16.4537012919,-22.9741205684 A 1.27,0.6485001761271683 72.94213205315386 0,0 -16.8044540159,-22.2222840383" />
      <path d="M -16.8044540159,-20.2443928102 A 1.27,0.6485001761271683 72.94213205315386 0,0 -16.0811627811,-18.6434207594" />
      <line x1="-16.8044540159" y1="-22.2222840383" x2="-16.8044540159" y2="-20.2443928102" />
      <line x1="-16.0811627811" y1="-18.6434207594" x2="-9.8671228897" y2="-14.6716890017" />
      <line x1="-9.8671228897" y1="-12.8816588147" x2="-12.0994805058" y2="-12.1966924418" />
      <line x1="-12.0994805058" y1="-12.1966924418" x2="-13.9656532974" y2="-13.3894652387" />
      <line x1="5.3973134756" y1="-16.4876474958" x2="1.6287952865" y2="-18.8963129748" />
      <line x1="1.2917847084" y1="-18.7929061946" x2="1.6287952865" y2="-18.8963129748" />
      <line x1="16.1141885502" y1="20.9501300712" x2="18.7747814315" y2="22.6506600687" />
      <line x1="5.3973134756" y1="21.3677328286" x2="6.0927701912" y2="21.1543420794" />
      <line x1="1.6287952865" y1="-18.8963129748" x2="1.6287952865" y2="19.9517187673" />
      <line x1="5.3973134756" y1="22.3603842462" x2="5.3973134756" y2="-3.2366376512" />
      <line x1="10.16478019" y1="-20.6402637329" x2="2.5539549103" y2="-18.3049930086" />
      <line x1="-9.8671228897" y1="-14.4937664616" x2="-13.5903556799" y2="-13.3513467876" />
      <line x1="10.16478019" y1="-11.872234913" x2="5.3973134756" y2="-10.4094072907" />
      <line x1="5.3973134756" y1="-10.4094072907" x2="5.3973134756" y2="-16.4876474958" />
      <line x1="14.2186161733" y1="21.5317588059" x2="20.5085949152" y2="19.6017705757" />
      <line x1="20.5085949152" y1="-0.7509632765" x2="20.5085949152" y2="19.6017705757" />
      <line x1="25.2760616295" y1="-2.2137908987" x2="20.5085949152" y2="-0.7509632765" />
      <line x1="6.0927701912" y1="21.1543420794" x2="6.0927701912" y2="9.7675702767" />
      <path d="M 9.9770438704,5.0558335594 A 1.75,0.7749857667656441 179.99999999999983 0,0 6.7885840859,5.4972039626" />
      <path d="M 6.7885840859,5.4972039626 A 1.75,0.7749857667656441 179.99999999999983 0,0 10.2885840859,5.4972039626" />
      <path d="M 10.2885840859,5.4972039626 A 1.75,0.7749857667656441 179.99999999999983 0,0 9.9770438704,5.0558335594" />
      <line x1="17.3123790497" y1="-10.4419014272" x2="23.2637553072" y2="-12.267994424" />
      <line x1="20.5085949152" y1="-0.7509632765" x2="5.3973134756" y2="-10.4094072907" />
      <line x1="5.3973134756" y1="10.2155308838" x2="6.0927701912" y2="10.6600351952" />
      <line x1="20.5085949152" y1="19.6017705757" x2="19.3695536006" y2="18.8737471575" />
      <line x1="19.3695536006" y1="5.6937829449" x2="19.3695536006" y2="18.8737471575" />
      <line x1="5.3973134756" y1="-3.2366376512" x2="19.3695536006" y2="5.6937829449" />
      <line x1="19.3695536006" y1="5.6937829449" x2="6.0927701912" y2="9.7675702767" />
      <path d="M 5.7779855726,8.3982468897 A 1.65,0.7307008658076074 179.99999999999983 0,0 7.5025006305,7.6682915304" />
      <path d="M 7.5025006305,7.6682915304 A 1.65,0.7307008658076074 179.99999999999983 0,0 7.208762713,7.252142293" />
      <path d="M 7.208762713,7.252142293 A 1.65,0.7307008658076074 179.99999999999983 0,0 5.3973134756,6.9659457543" />
      <path d="M 5.3973134756,8.3706373065 A 1.65,0.7307008658076074 179.99999999999983 0,0 5.7779855726,8.3982468897" />
      <path d="M 5.6039760265,-1.0439560552 A 1.65,0.7307008658076074 179.99999999999983 0,0 5.3973134756,-1.0423543206" />
      <path d="M 5.3973134756,0.4143529288 A 1.65,0.7307008658076074 179.99999999999983 0,0 7.1794609686,-0.3140006959" />
      <path d="M 7.1794609686,-0.3140006959 A 1.65,0.7307008658076074 179.99999999999983 0,0 6.8857230512,-0.7301499333" />
      <path d="M 6.8857230512,-0.7301499333 A 1.65,0.7307008658076074 179.99999999999983 0,0 5.6039760265,-1.0439560552" />
      <path d="M 14.1467858855,4.416219581 A 1.65,0.7307008658076074 179.99999999999983 0,0 12.4222708277,5.1461749403" />
      <path d="M 12.4222708277,5.1461749403 A 1.65,0.7307008658076074 179.99999999999983 0,0 15.7222708277,5.1461749403" />
      <path d="M 15.7222708277,5.1461749403 A 1.65,0.7307008658076074 179.99999999999983 0,0 15.4285329102,4.7300257029" />
      <path d="M 15.4285329102,4.7300257029 A 1.65,0.7307008658076074 179.99999999999983 0,0 14.1467858855,4.416219581" />
      <line x1="-9.8291202353" y1="21.9621152991" x2="-9.8291202353" y2="11.2462994601" />
      <line x1="-7.6972491855" y1="12.608894503" x2="-0.299456008" y2="10.3389895719" />
      <line x1="-12.0994805058" y1="26.6513393003" x2="-12.0994805058" y2="9.7951884043" />
      <line x1="-12.0994805058" y1="1.5476848452" x2="-12.0994805058" y2="-12.1966924418" />
      <line x1="9.7330342146" y1="27.2181807276" x2="18.7747814315" y2="24.4438524786" />
      <line x1="18.7747814315" y1="24.4438524786" x2="18.7747814315" y2="22.6506600687" />
      <line x1="14.2186161733" y1="21.5317588059" x2="18.7747814315" y2="24.4438524786" />
      <line x1="9.7330342146" y1="27.2181807276" x2="4.0378276419" y2="23.5780636368" />
      <line x1="4.0378276419" y1="23.5780636368" x2="4.0378276419" y2="22.7775226446" />
      <line x1="19.3695536006" y1="18.8737471575" x2="4.0378276419" y2="23.5780636368" />
      <line x1="-16.0811627811" y1="7.2502781336" x2="-7.6972491855" y2="12.608894503" />
      <line x1="-8.6833696037" y1="4.9803732025" x2="-16.0811627811" y2="7.2502781336" />
      <path d="M -16.4537012919,2.8837139821 A 1.27,0.6485001761271683 72.94213205315386 0,0 -16.8044540159,3.6355505122" />
      <line x1="-16.8044540159" y1="3.6355505122" x2="-16.8044540159" y2="5.6134417403" />
      <path d="M -16.8044540159,5.6134417403 A 1.27,0.6485001761271683 72.94213205315386 0,0 -16.0811627811,7.2144137911" />
      <line x1="-16.0811627811" y1="7.2144137911" x2="-16.0811627811" y2="7.2502781336" />
      <line x1="-16.0811627811" y1="7.2144137911" x2="-8.6833696037" y2="4.94450886" />
      <line x1="-9.4066608384" y1="-24.4921889694" x2="-16.8044540159" y2="-22.2222840383" />
      <line x1="-8.6833696037" y1="-20.9133256905" x2="-16.0811627811" y2="-18.6434207594" />
      <line x1="-9.4066608384" y1="-22.5142977413" x2="-16.8044540159" y2="-20.2443928102" />
      <line x1="-9.4066608384" y1="3.3435368092" x2="-16.8044540159" y2="5.6134417403" />
      <line x1="-16.8044540159" y1="3.6355505122" x2="-9.4066608384" y2="1.3656455811" />
      <line x1="-9.0559081144" y1="-25.2440254995" x2="-16.4537012919" y2="-22.9741205684" />
      <line x1="-9.0559081144" y1="0.613809051" x2="-16.4537012919" y2="2.8837139821" />
    </g>
  </g>
</svg>