<?xml version='1.0' encoding='utf-8'?>
<svg width="512.9999999988mm" height="428.5727470876mm" viewBox="-8.9665691875 -7.3769450168 18.2440114035 15.2414933433" version="1.1" xmlns="http://www.w3.org/2000/svg">
  <g transform="scale(1,-1)" stroke-linecap="round">
    <g fill="none" stroke="rgb(64,192,64)" stroke-width="0.035563375055636975" id="Visible">
      <path d="M 8.1463976378,-3.7165694092 A 0.508,0.2867750289148623 180.0 0,0 7.9143359319,-3.7210482794" />
      <line x1="8.1463976378" y1="-4.9547007786" x2="8.1463976378" y2="-3.7165694092" />
      <path d="M 8.1463976378,-4.9547007786 A 0.508,0.2867750289148623 1.9266259382052234e-15 0,1 8.4825851136,-4.7879530802" />
      <path d="M 7.9143359319,-0.0322422197 A 0.508,0.2867750289148623 1.9266259382052234e-15 0,1 8.4825851136,0.1389843489" />
      <path d="M 4.1370056885,-5.9094587524 A 0.508,0.2867750289148623 180.0 0,0 4.1190119835,-5.9851079905" />
      <path d="M 3.8228929122,-2.4857187322 A 0.508,0.2867750289148623 1.9266259382052234e-15 0,1 4.1370056885,-2.2206526927" />
      <path d="M 4.1370056885,-2.2206526927 A 0.508,0.2867750289148623 1.9266259382052234e-15 0,1 4.1274560586,-2.1653091352" />
      <path d="M 3.8228929122,-7.4126561613 A 0.508,0.2867750289148623 1.9266259382052234e-15 0,1 4.1190119835,-7.2232393599" />
      <line x1="4.1190119835" y1="-5.9851079905" x2="4.1190119835" y2="-7.2232393599" />
      <line x1="6.8826638345" y1="-4.1765225788" x2="8.1463976378" y2="-4.9547007786" />
      <line x1="6.8826638345" y1="-3.6051701275" x2="7.9143359319" y2="-3.7210482794" />
      <path d="M 6.7334790536,-5.0240621552 A 0.508,0.2867750289148623 -9.633129691026116e-15 0,1 6.8826638345,-4.8210588335" />
      <line x1="6.4382355298" y1="-5.1903663987" x2="6.7334790536" y2="-5.0240621552" />
      <path d="M 5.797168211,-5.2257993414 A 0.508,0.2867750289148623 -9.633129691026116e-15 0,1 6.4382355298,-5.1903663987" />
      <line x1="4.5651673179" y1="-4.7610367817" x2="5.797168211" y2="-5.2257993414" />
      <path d="M 4.1370056885,-4.7247816854 A 0.508,0.2867750289148623 180.0 0,0 4.5651673179,-4.7610367817" />
      <path d="M 6.7334790536,-1.3352560955 A 0.508,0.2867750289148623 1.9266259382052234e-15 0,1 6.8826638345,-1.1322527738" />
      <path d="M 6.8826638345,-1.1322527738 A 0.508,0.2867750289148623 1.9266259382052234e-15 0,1 6.7976548421,-0.9734409632" />
      <line x1="6.7976548421" y1="-0.9734409632" x2="5.9770737404" y2="-0.2769346" />
      <path d="M 5.9770737404,-0.2769346 A 0.508000000000001,0.28677502891486284 180.0 0,0 5.8920647481,-0.1181227894" />
      <path d="M 5.8920647481,-0.1181227894 A 0.508000000000001,0.28677502891486284 180.0 0,0 5.9598794153,0.0250254642" />
      <line x1="5.9598794153" y1="-0.261271043" x2="5.9598794153" y2="0.0250254642" />
      <path d="M 5.9598794153,0.0250254642 A 0.508,0.2867750289148623 -180.0 0,0 6.4610555903,0.1309912735" />
      <line x1="6.4610555903" y1="0.1309912735" x2="7.9143359319" y2="-0.0322422197" />
      <line x1="3.4373867496" y1="-7.5025193175" x2="3.8228929122" y2="-7.4126561613" />
      <path d="M 2.8210979817,-7.3967642899 A 0.508,0.2867750289148623 1.9266259382052234e-15 0,1 3.4373867496,-7.5025193175" />
      <line x1="1.9979375049" y1="-6.7012285505" x2="2.8210979817" y2="-7.3967642899" />
      <path d="M 1.5108211961,-6.5761010211 A 0.508,0.2867750289148623 -180.0 0,0 1.9979375049,-6.7012285505" />
      <path d="M 1.14474862,-6.7964825636 A 0.508,0.2867750289148623 -180.0 0,0 1.5108211961,-6.5761010211" />
      <line x1="0.8525533059" y1="-7.6165418605" x2="1.14474862" y2="-6.7964825636" />
      <path d="M 0.3539697799,-7.8467664657 A 0.508,0.2867750289148623 1.9266259382052234e-15 0,1 0.8525533059,-7.6165418605" />
      <line x1="-0.063109203" y1="-7.8465076836" x2="0.3539697799" y2="-7.8467664657" />
      <path d="M -0.5607950418,-7.6156649301 A 0.508,0.2867750289148623 1.9266259382052234e-15 0,1 -0.063109203,-7.8465076836" />
      <line x1="-0.8497963815" y1="-6.7952450221" x2="-0.5607950418" y2="-7.6156649301" />
      <path d="M -1.2150099189,-6.5744097436 A 0.508,0.2867750289148623 180.0 0,0 -0.8497963815,-6.7952450221" />
      <path d="M -1.7026122909,-6.698932496 A 0.508,0.2867750289148623 -180.0 0,0 -1.2150099189,-6.5744097436" />
      <line x1="-2.528479159" y1="-7.3934450749" x2="-1.7026122909" y2="-6.698932496" />
      <path d="M -3.1451782425,-7.4984350791 A 0.508,0.2867750289148623 1.9266259382052234e-15 0,1 -2.528479159,-7.3934450749" />
      <line x1="-3.5303335513" y1="-7.4080937559" x2="-3.1451782425" y2="-7.4984350791" />
      <path d="M -3.8434146426,-7.1432689562 A 0.508,0.2867750289148623 1.9266259382052234e-15 0,1 -3.5303335513,-7.4080937559" />
      <path d="M -4.2671021145,-5.9936880541 A 0.508,0.2867750289148623 -180.0 0,0 -3.8434146426,-5.9571904791" />
      <line x1="-5.5009097924" y1="-6.4569206707" x2="-4.2671021145" y2="-5.9936880541" />
      <path d="M -6.1418375883,-6.4206922974 A 0.508,0.2867750289148623 1.9266259382052234e-15 0,1 -5.5009097924,-6.4569206707" />
      <line x1="-6.4364328187" y1="-6.2540220807" x2="-6.1418375883" y2="-6.4206922974" />
      <path d="M -6.5848279821,-6.0514645121 A 0.508,0.2867750289148623 1.9266259382052234e-15 0,1 -6.4364328187,-6.2540220807" />
      <line x1="-7.6122129755" y1="-4.9495459987" x2="-6.5848279821" y2="-4.8354741796" />
      <path d="M -8.1797940369,-4.7776146894 A 0.508,0.2867750289148623 1.9266259382052234e-15 0,1 -7.6122129755,-4.9495459987" />
      <line x1="-8.3389797356" y1="-4.5599896088" x2="-8.1797940369" y2="-4.7776146894" />
      <path d="M -8.3774355476,-4.450536825 A 0.508,0.2867750289148623 1.9266259382052234e-15 0,1 -8.3389797356,-4.5599896088" />
      <line x1="-8.5409619377" y1="-3.1008051884" x2="-8.3774355476" y2="-3.1193734429" />
      <path d="M -8.9487871932,-2.8193459265 A 0.508,0.2867750289148623 1.9266259382052234e-15 0,1 -8.9487875,-2.8196611215" />
      <path d="M -8.9487875,-2.8196611215 A 0.508,0.2867750289148623 1.9266259382052234e-15 0,1 -8.5409619377,-3.1008051884" />
      <path d="M 9.2596602216,-2.5951948123 A 0.508,0.2867750289148623 1.9266259382052234e-15 0,1 9.2596605285,-2.5948796173" />
      <path d="M 9.2596605285,-2.5948796173 A 0.508,0.2867750289148623 1.9266259382052234e-15 0,1 9.2596602216,-2.5945644222" />
      <line x1="9.259201809" y1="-2.8306433111" x2="9.2596602216" y2="-2.5951948123" />
      <path d="M 8.850281551,-3.1115958127 A 0.508,0.2867750289148623 1.9266259382052234e-15 0,1 9.259201809,-2.8306433111" />
      <line x1="8.6815009984" y1="-3.13054285" x2="8.850281551" y2="-3.1115958127" />
      <path d="M 8.6426178484,-4.5705260629 A 0.508,0.2867750289148623 1.9266259382052234e-15 0,1 8.6815009984,-4.4604908745" />
      <line x1="8.4825851136" y1="-4.7879530802" x2="8.6426178484" y2="-4.5705260629" />
      <path d="M 7.0087737051,2.9848058025 A 0.508,0.2867750289148623 -180.0 0,0 7.0046347963,3.0213384374" />
      <path d="M 7.0046347963,3.0213384374 A 0.508,0.2867750289148623 -180.0 0,0 7.23042754,3.2597916166" />
      <path d="M 8.4625158323,3.7244803361 A 0.508,0.2867750289148623 1.9266259382052234e-15 0,1 8.688308576,3.9629335153" />
      <path d="M 8.688308576,3.9629335153 A 0.508,0.2867750289148623 1.9266259382052234e-15 0,1 8.649852764,4.0723862992" />
      <line x1="7.0057777365" y1="1.3717100902" x2="7.0057777365" y2="1.4460256907" />
      <path d="M 7.0057777365,1.4460256907 A 0.508,0.2867750289148623 -180.0 0,0 7.3969705189,1.6521952236" />
      <path d="M 8.850281551,1.8153416165 A 0.508,0.2867750289148623 1.9266259382052234e-15 0,1 9.259201809,2.096294118" />
      <path d="M 3.841495731,-1.3445497143 A 0.508,0.2867750289148623 -180.0 0,0 3.831946101,-1.2892061568" />
      <path d="M 3.831946101,-1.2892061568 A 0.508,0.2867750289148623 -180.0 0,0 4.0303072798,-1.0618604738" />
      <line x1="4.0303072798" y1="-1.8864740392" x2="4.0303072798" y2="-1.0618604738" />
      <path d="M 0.3539697799,-2.9198290366 A 0.508,0.2867750289148623 1.9266259382052234e-15 0,1 0.8525533059,-2.6896044314" />
      <line x1="1.5108211961" y1="-6.5761010211" x2="1.5108211961" y2="-1.649163592" />
      <path d="M 1.14474862,-1.8695451345 A 0.508,0.2867750289148623 -180.0 0,0 1.5108211961,-1.649163592" />
      <path d="M -3.1451782425,-2.57149765 A 0.508,0.2867750289148623 1.9266259382052234e-15 0,1 -2.528479159,-2.4665076458" />
      <line x1="-1.2150099189" y1="-6.5744097436" x2="-1.2150099189" y2="-1.6474723145" />
      <path d="M -1.7026122909,-1.7719950669 A 0.508,0.2867750289148623 -180.0 0,0 -1.2150099189,-1.6474723145" />
      <path d="M -0.7818606012,2.7499523367 A 1.3269976,0.7491137305314033 1.9266259382052234e-15 0,1 -1.1715610858,2.2196670597" />
      <path d="M -1.1715610858,2.2196670597 A 1.3269976,0.7491137305314033 1.9266259382052234e-15 1,1 1.4824341142,2.2196670597" />
      <path d="M 1.4824341142,2.2196670597 A 1.3269976,0.7491137305314033 1.9266259382052234e-15 0,1 -0.7818606012,2.7499523367" />
      <line x1="8.649852764" y1="4.0723862992" x2="8.4906670654" y2="4.2900113798" />
      <path d="M 8.4906670654,4.2900113798 A 0.508,0.2867750289148623 1.9266259382052234e-15 0,1 7.9230860039,4.461942689" />
      <line x1="7.9230860039" y1="4.461942689" x2="6.4691735508" y2="4.3005130016" />
      <path d="M 6.4691735508,4.3005130016 A 0.508,0.2867750289148623 180.0 0,0 5.9684112121,4.4071004767" />
      <path d="M 5.9684112121,4.4071004767 A 0.508,0.2867750289148623 180.0 0,0 5.9011528932,4.5497021477" />
      <path d="M 5.9011528932,4.5497021477 A 0.508,0.2867750289148623 180.0 0,0 5.9867813124,4.7090384745" />
      <line x1="5.9867813124" y1="4.7090384745" x2="6.8100725913" y2="5.4045248756" />
      <path d="M 6.8100725913,5.4045248756 A 0.508,0.2867750289148623 1.9266259382052234e-15 0,1 6.8957010105,5.5638612025" />
      <path d="M 6.8957010105,5.5638612025 A 0.508,0.2867750289148623 1.9266259382052234e-15 0,1 6.7473058471,5.766418771" />
      <line x1="6.7473058471" y1="5.766418771" x2="6.4527106167" y2="5.9330889877" />
      <path d="M 6.4527106167,5.9330889877 A 0.508,0.2867750289148623 1.9266259382052234e-15 0,1 5.8117828208,5.969317361" />
      <line x1="5.8117828208" y1="5.969317361" x2="4.577975143" y2="5.5060847445" />
      <path d="M 4.577975143,5.5060847445 A 0.508,0.2867750289148623 -180.0 0,0 4.043076016,5.4963782424" />
      <path d="M 4.043076016,5.4963782424 A 0.508,0.2867750289148623 -180.0 0,0 3.8455993614,5.7233391377" />
      <path d="M 3.8455993614,5.7233391377 A 0.508,0.2867750289148623 -180.0 0,0 3.8553657005,5.7793011008" />
      <line x1="3.8553657005" y1="5.7793011008" x2="4.1445213319" y2="6.5997036834" />
      <path d="M 4.1445213319,6.5997036834 A 0.508,0.2867750289148623 1.9266259382052234e-15 0,1 4.1542876711,6.6556656466" />
      <path d="M 4.1542876711,6.6556656466 A 0.508,0.2867750289148623 1.9266259382052234e-15 0,1 3.8412065798,6.9204904463" />
      <line x1="3.8412065798" y1="6.9204904463" x2="3.4560512709" y2="7.0108317694" />
      <path d="M 3.4560512709,7.0108317694 A 0.508,0.2867750289148623 1.9266259382052234e-15 0,1 2.8393521874,6.9058417653" />
      <line x1="2.8393521874" y1="6.9058417653" x2="2.0134853194" y2="6.2113291864" />
      <path d="M 2.0134853194,6.2113291864 A 0.508,0.2867750289148623 180.0 0,0 1.5258829473,6.0868064339" />
      <path d="M 1.5258829473,6.0868064339 A 0.508,0.2867750289148623 -180.0 0,0 1.16066941,6.3076417125" />
      <line x1="1.16066941" y1="6.3076417125" x2="0.8716680702" y2="7.1280616204" />
      <path d="M 0.8716680702,7.1280616204 A 0.508,0.2867750289148623 1.9266259382052234e-15 0,1 0.3739822315,7.358904374" />
      <line x1="0.3739822315" y1="7.358904374" x2="-0.0430967514" y2="7.3591631561" />
      <path d="M -0.0430967514,7.3591631561 A 0.508,0.2867750289148623 1.9266259382052234e-15 0,1 -0.5416802774,7.1289385509" />
      <line x1="-0.5416802774" y1="7.1289385509" x2="-0.8338755915" y2="6.308879254" />
      <path d="M -0.8338755915,6.308879254 A 0.508,0.2867750289148623 -180.0 0,0 -1.1999481676,6.0884977115" />
      <path d="M -1.1999481676,6.0884977115 A 0.508,0.2867750289148623 -180.0 0,0 -1.6870644765,6.2136252408" />
      <line x1="-1.6870644765" y1="6.2136252408" x2="-2.5102249532" y2="6.9091609803" />
      <path d="M -2.5102249532,6.9091609803 A 0.508,0.2867750289148623 1.9266259382052234e-15 0,1 -3.1265137211,7.0149160079" />
      <line x1="-3.1265137211" y1="7.0149160079" x2="-3.5120198838" y2="6.9250528517" />
      <path d="M -3.5120198838,6.9250528517 A 0.508,0.2867750289148623 1.9266259382052234e-15 0,1 -3.8261326601,6.6599868121" />
      <path d="M -3.8261326601,6.6599868121 A 0.508,0.2867750289148623 1.9266259382052234e-15 0,1 -3.8165830302,6.6046432546" />
      <line x1="-3.8165830302" y1="6.6046432546" x2="-3.5306227025" y2="5.7838838338" />
      <path d="M -3.5306227025,5.7838838338 A 0.508,0.2867750289148623 -180.0 0,0 -3.5210730726,5.7285402763" />
      <path d="M -3.5210730726,5.7285402763 A 0.508,0.2867750289148623 -180.0 0,0 -3.7194342514,5.5011945933" />
      <path d="M -3.7194342514,5.5011945933 A 0.508,0.2867750289148623 -180.0 0,0 -4.2542942894,5.5115648414" />
      <line x1="-4.2542942894" y1="5.5115648414" x2="-5.4862951825" y2="5.9763274011" />
      <path d="M -5.4862951825,5.9763274011 A 0.508,0.2867750289148623 1.9266259382052234e-15 0,1 -6.1273625013,5.9408944584" />
      <line x1="-6.1273625013" y1="5.9408944584" x2="-6.4226060251" y2="5.7745902149" />
      <path d="M -6.4226060251,5.7745902149 A 0.508,0.2867750289148623 1.9266259382052234e-15 0,1 -6.571790806,5.5715868932" />
      <path d="M -6.571790806,5.5715868932 A 0.508,0.2867750289148623 1.9266259382052234e-15 0,1 -6.4867818137,5.4127750826" />
      <line x1="-6.4867818137" y1="5.4127750826" x2="-5.6662007119" y2="4.7162687195" />
      <path d="M -5.6662007119,4.7162687195 A 0.508,0.2867750289148623 180.0 0,0 -5.5811917196,4.5574569089" />
      <path d="M -5.5811917196,4.5574569089 A 0.508,0.2867750289148623 180.0 0,0 -5.6490063869,4.4143086553" />
      <path d="M -5.6490063869,4.4143086553 A 0.508,0.2867750289148623 -180.0 0,0 -6.1501825618,4.3083428459" />
      <line x1="-6.1501825618" y1="4.3083428459" x2="-7.6034629034" y2="4.4715763391" />
      <path d="M -7.6034629034,4.4715763391 A 0.508,0.2867750289148623 1.9266259382052234e-15 0,1 -8.1717120851,4.3003497706" />
      <line x1="-8.1717120851" y1="4.3003497706" x2="-8.33174482" y2="4.0829227532" />
      <path d="M -8.33174482,4.0829227532 A 0.508,0.2867750289148623 1.9266259382052234e-15 0,1 -8.3706279699,3.9728875649" />
      <path d="M -8.3706279699,3.9728875649 A 0.508,0.2867750289148623 1.9266259382052234e-15 0,1 -8.1457630687,3.7347851597" />
      <line x1="-8.1457630687" y1="3.7347851597" x2="-6.915487227" y2="3.2685686342" />
      <path d="M -6.915487227,3.2685686342 A 0.508,0.2867750289148623 -180.0 0,0 -6.6906223257,3.030466229" />
      <path d="M -6.6906223257,3.030466229 A 0.508,0.2867750289148623 -180.0 0,0 -6.6949047081,2.9933084288" />
      <path d="M -6.6949047081,2.9933084288 A 0.508,0.2867750289148623 180.0 0,0 -7.0860974905,2.7871388958" />
      <line x1="-7.0860974905" y1="2.7871388958" x2="-8.5394085226" y2="2.623992503" />
      <path d="M -8.5394085226,2.623992503 A 0.508,0.2867750289148623 1.9266259382052234e-15 0,1 -8.9483287805,2.3430400014" />
      <line x1="-8.9483287805" y1="2.3430400014" x2="-8.9487871932" y2="2.1075915026" />
      <path d="M -8.9487871932,2.1075915026 A 0.508,0.2867750289148623 1.9266259382052234e-15 0,1 -8.9487875,2.1072763076" />
      <path d="M -8.9487875,2.1072763076 A 0.508,0.2867750289148623 1.9266259382052234e-15 0,1 -8.5409619377,1.8261322407" />
      <line x1="-8.5409619377" y1="1.8261322407" x2="-7.0882897005" y2="1.6611827925" />
      <path d="M -7.0882897005,1.6611827925 A 0.508,0.2867750289148623 180.0 0,0 -6.6979006767,1.454528317" />
      <path d="M -6.6979006767,1.454528317 A 0.508,0.2867750289148623 -180.0 0,0 -6.6937617679,1.4179956821" />
      <path d="M -6.6937617679,1.4179956821 A 0.508,0.2867750289148623 -180.0 0,0 -6.9195545116,1.1795425029" />
      <line x1="-6.9195545116" y1="1.1795425029" x2="-8.1516428039" y2="0.7148537833" />
      <path d="M -8.1516428039,0.7148537833 A 0.508,0.2867750289148623 1.9266259382052234e-15 0,1 -8.3774355476,0.4764006041" />
      <path d="M -8.3774355476,0.4764006041 A 0.508,0.2867750289148623 1.9266259382052234e-15 0,1 -8.3389797356,0.3669478203" />
      <line x1="-8.3389797356" y1="0.3669478203" x2="-8.1797940369" y2="0.1493227397" />
      <path d="M -8.1797940369,0.1493227397 A 0.508,0.2867750289148623 1.9266259382052234e-15 0,1 -7.6122129755,-0.0226085696" />
      <line x1="-7.6122129755" y1="-0.0226085696" x2="-6.1583005223" y2="0.1388211179" />
      <path d="M -6.1583005223,0.1388211179 A 0.508,0.2867750289148623 -180.0 0,0 -5.6575381836,0.0322336427" />
      <path d="M -5.6575381836,0.0322336427 A 0.508,0.2867750289148623 -180.0 0,0 -5.5902798647,-0.1103680282" />
      <path d="M -5.5902798647,-0.1103680282 A 0.508,0.2867750289148623 -180.0 0,0 -5.675908284,-0.2697043551" />
      <line x1="-5.675908284" y1="-0.2697043551" x2="-6.4991995628" y2="-0.9651907562" />
      <path d="M -6.4991995628,-0.9651907562 A 0.508,0.2867750289148623 1.9266259382052234e-15 0,1 -6.5848279821,-1.124527083" />
      <path d="M -6.5848279821,-1.124527083 A 0.508,0.2867750289148623 1.9266259382052234e-15 0,1 -6.4364328187,-1.3270846516" />
      <line x1="-6.4364328187" y1="-1.3270846516" x2="-6.1418375883" y2="-1.4937548683" />
      <path d="M -6.1418375883,-1.4937548683 A 0.508,0.2867750289148623 1.9266259382052234e-15 0,1 -5.5009097924,-1.5299832416" />
      <line x1="-5.5009097924" y1="-1.5299832416" x2="-4.2671021145" y2="-1.066750625" />
      <path d="M -4.2671021145,-1.066750625 A 0.508,0.2867750289148623 -180.0 0,0 -3.7322029875,-1.0570441229" />
      <path d="M -3.7322029875,-1.0570441229 A 0.508,0.2867750289148623 -180.0 0,0 -3.534726333,-1.2840050182" />
      <path d="M -3.534726333,-1.2840050182 A 0.508,0.2867750289148623 -180.0 0,0 -3.5444926721,-1.3399669813" />
      <line x1="-3.5444926721" y1="-1.3399669813" x2="-3.8336483035" y2="-2.160369564" />
      <path d="M -3.8336483035,-2.160369564 A 0.508,0.2867750289148623 1.9266259382052234e-15 0,1 -3.8434146426,-2.2163315271" />
      <path d="M -3.8434146426,-2.2163315271 A 0.508,0.2867750289148623 1.9266259382052234e-15 0,1 -3.5303335513,-2.4811563268" />
      <line x1="-3.5303335513" y1="-2.4811563268" x2="-3.1451782425" y2="-2.57149765" />
      <line x1="-2.528479159" y1="-2.4665076458" x2="-1.7026122909" y2="-1.7719950669" />
      <path d="M -1.2150099189,-1.6474723145 A 0.508,0.2867750289148623 180.0 0,0 -0.8497963815,-1.868307593" />
      <line x1="-0.8497963815" y1="-1.868307593" x2="-0.5607950418" y2="-2.688727501" />
      <path d="M -0.5607950418,-2.688727501 A 0.508,0.2867750289148623 1.9266259382052234e-15 0,1 -0.063109203,-2.9195702545" />
      <line x1="-0.063109203" y1="-2.9195702545" x2="0.3539697799" y2="-2.9198290366" />
      <line x1="0.8525533059" y1="-2.6896044314" x2="1.14474862" y2="-1.8695451345" />
      <path d="M 1.5108211961,-1.649163592 A 0.508,0.2867750289148623 -180.0 0,0 1.9979375049,-1.7742911214" />
      <line x1="1.9979375049" y1="-1.7742911214" x2="2.8210979817" y2="-2.4698268608" />
      <path d="M 2.8210979817,-2.4698268608 A 0.508,0.2867750289148623 1.9266259382052234e-15 0,1 3.4373867496,-2.5755818884" />
      <line x1="3.4373867496" y1="-2.5755818884" x2="3.8228929122" y2="-2.4857187322" />
      <line x1="4.1274560586" y1="-2.1653091352" x2="3.841495731" y2="-1.3445497143" />
      <path d="M 4.0303072798,-1.0618604738 A 0.508,0.2867750289148623 -180.0 0,0 4.5651673179,-1.072230722" />
      <line x1="4.5651673179" y1="-1.072230722" x2="5.797168211" y2="-1.5369932816" />
      <path d="M 5.797168211,-1.5369932816 A 0.508,0.2867750289148623 1.9266259382052234e-15 0,1 6.4382355298,-1.501560339" />
      <line x1="6.4382355298" y1="-1.501560339" x2="6.7334790536" y2="-1.3352560955" />
      <line x1="8.4825851136" y1="0.1389843489" x2="8.6426178484" y2="0.3564113662" />
      <path d="M 8.6426178484,0.3564113662 A 0.508,0.2867750289148623 1.9266259382052234e-15 0,1 8.6815009984,0.4664465546" />
      <path d="M 8.6815009984,0.4664465546 A 0.508,0.2867750289148623 1.9266259382052234e-15 0,1 8.4566360971,0.7045489597" />
      <line x1="8.4566360971" y1="0.7045489597" x2="7.2263602554" y2="1.1707654853" />
      <path d="M 7.2263602554,1.1707654853 A 0.508,0.2867750289148623 -180.0 0,0 7.0014953542,1.4088678904" />
      <path d="M 7.0014953542,1.4088678904 A 0.508,0.2867750289148623 -180.0 0,0 7.0057777365,1.4460256907" />
      <line x1="7.3969705189" y1="1.6521952236" x2="8.850281551" y2="1.8153416165" />
      <line x1="9.259201809" y1="2.096294118" x2="9.2596602216" y2="2.3317426168" />
      <path d="M 9.2596602216,2.3317426168 A 0.508,0.2867750289148623 1.9266259382052234e-15 0,1 9.2596605285,2.3320578118" />
      <path d="M 9.2596605285,2.3320578118 A 0.508,0.2867750289148623 1.9266259382052234e-15 0,1 8.8518349662,2.6132018788" />
      <line x1="8.8518349662" y1="2.6132018788" x2="7.3991627289" y2="2.7781513269" />
      <path d="M 7.3991627289,2.7781513269 A 0.508,0.2867750289148623 -180.0 0,0 7.0087737051,2.9848058025" />
      <line x1="7.23042754" y1="3.2597916166" x2="8.4625158323" y2="3.7244803361" />
      <line x1="-6.6979006767" y1="1.3814630472" x2="-6.6979006767" y2="1.454528317" />
      <line x1="-5.6575381836" y1="0.0322336427" x2="-5.6575381836" y2="-0.2529696991" />
      <line x1="-3.7322029875" y1="-1.0570441229" x2="-3.7322029875" y2="-1.8725453263" />
      <line x1="8.4825851136" y1="0.1389843489" x2="8.4825851136" y2="-4.7879530802" />
      <line x1="7.9143359319" y1="-0.0322422197" x2="7.9143359319" y2="-3.7210482794" />
      <line x1="3.8228929122" y1="-2.4857187322" x2="3.8228929122" y2="-7.4126561613" />
      <line x1="6.7334790536" y1="-1.3352560955" x2="6.7334790536" y2="-5.0240621552" />
      <line x1="6.4610555903" y1="0.1309912735" x2="6.4610555903" y2="-0.6877366979" />
      <line x1="7.23042754" y1="3.2597916166" x2="7.23042754" y2="2.8159943812" />
      <line x1="8.4625158323" y1="3.7244803361" x2="8.4625158323" y2="2.6574086686" />
      <line x1="7.3969705189" y1="1.6521952236" x2="7.3969705189" y2="1.1061122412" />
      <line x1="9.259201809" y1="2.096294118" x2="9.259201809" y2="-2.8306433111" />
      <line x1="8.850281551" y1="1.8153416165" x2="8.850281551" y2="-3.1115958127" />
      <line x1="0.8525533059" y1="-2.6896044314" x2="0.8525533059" y2="-7.6165418605" />
      <line x1="0.3539697799" y1="-2.9198290366" x2="0.3539697799" y2="-7.8467664657" />
      <line x1="1.14474862" y1="-6.7964825636" x2="1.14474862" y2="-1.8695451345" />
      <line x1="-2.528479159" y1="-2.4665076458" x2="-2.528479159" y2="-7.3934450749" />
      <line x1="-3.1451782425" y1="-2.57149765" x2="-3.1451782425" y2="-7.4984350791" />
      <line x1="-1.7026122909" y1="-6.698932496" x2="-1.7026122909" y2="-1.7719950669" />
      <line x1="6.8100725913" y1="5.4045248756" x2="6.8100725913" y2="4.3383634412" />
      <line x1="5.9867813124" y1="4.7090384745" x2="5.9867813124" y2="4.3943828875" />
      <line x1="4.1445213319" y1="6.5997036834" x2="4.1445213319" y2="5.471257008" />
      <line x1="3.8553657005" y1="5.7793011008" x2="3.8553657005" y2="5.6673771745" />
      <line x1="-3.5306227025" y1="5.7838838338" x2="-3.5306227025" y2="5.6731967188" />
      <line x1="-3.8165830302" y1="6.6046432546" x2="-3.8165830302" y2="5.4769842663" />
      <line x1="-5.6662007119" y1="4.7162687195" x2="-5.6662007119" y2="4.4024136686" />
      <line x1="-6.4867818137" y1="5.4127750826" x2="-6.4867818137" y2="4.346149916" />
      <line x1="-6.915487227" y1="3.2685686342" x2="-6.915487227" y2="2.8253808935" />
      <line x1="-8.1457630687" y1="3.7347851597" x2="-8.1457630687" y2="2.6681825177" />
      <line x1="-7.0882897005" y1="1.6611827925" x2="-7.0882897005" y2="1.1159031198" />
      <line x1="-8.5409619377" y1="1.8261322407" x2="-8.5409619377" y2="-3.1008051884" />
      <line x1="-8.9487871932" y1="2.1069611126" x2="-8.9487871932" y2="-2.8193459265" />
      <line x1="-6.1583005223" y1="0.1388211179" x2="-6.1583005223" y2="-0.6772116983" />
      <line x1="-7.6122129755" y1="-0.0226085696" x2="-7.6122129755" y2="-4.9495459987" />
      <line x1="-8.1797940369" y1="0.1493227397" x2="-8.1797940369" y2="-4.7776146894" />
      <line x1="-8.3389797356" y1="0.3669478203" x2="-8.3389797356" y2="-4.5599896088" />
      <line x1="-4.2671021145" y1="-1.066750625" x2="-4.2671021145" y2="-5.9936880541" />
      <line x1="-5.5009097924" y1="-1.5299832416" x2="-5.5009097924" y2="-6.4569206707" />
      <line x1="-6.1418375883" y1="-1.4937548683" x2="-6.1418375883" y2="-6.4206922974" />
      <line x1="-6.4364328187" y1="-1.3270846516" x2="-6.4364328187" y2="-6.2540220807" />
      <line x1="-3.5303335513" y1="-2.4811563268" x2="-3.5303335513" y2="-7.4080937559" />
      <line x1="-0.5607950418" y1="-2.688727501" x2="-0.5607950418" y2="-7.6156649301" />
      <line x1="-0.8497963815" y1="-1.868307593" x2="-0.8497963815" y2="-6.7952450221" />
      <line x1="-0.063109203" y1="-2.9195702545" x2="-0.063109203" y2="-7.8465076836" />
      <line x1="2.8210979817" y1="-2.4698268608" x2="2.8210979817" y2="-7.3967642899" />
      <line x1="1.9979375049" y1="-1.7742911214" x2="1.9979375049" y2="-6.7012285505" />
      <line x1="3.4373867496" y1="-2.5755818884" x2="3.4373867496" y2="-7.5025193175" />
      <line x1="5.797168211" y1="-1.5369932816" x2="5.797168211" y2="-5.2257993414" />
      <line x1="4.5651673179" y1="-1.072230722" x2="4.5651673179" y2="-4.7610367817" />
      <line x1="6.4382355298" y1="-1.501560339" x2="6.4382355298" y2="-5.1903663987" />
      <line x1="8.6426178484" y1="0.3564113662" x2="8.6426178484" y2="-4.5705260629" />
      <line x1="9.2596602216" y1="2.3317426168" x2="9.2596602216" y2="-2.5951948123" />
      <line x1="4.1370056885" y1="-5.9094587524" x2="4.1370056885" y2="-2.2206526927" />
      <line x1="6.8826638345" y1="-4.8210588335" x2="6.8826638345" y2="-1.1322527738" />
      <line x1="8.688308576" y1="2.6317701333" x2="8.688308576" y2="3.9629335153" />
      <line x1="6.8957010105" y1="4.3478708699" x2="6.8957010105" y2="5.5638612025" />
      <line x1="4.1542876711" y1="5.4695871695" x2="4.1542876711" y2="6.6556656466" />
      <line x1="-3.8261326601" y1="5.4753097451" x2="-3.8261326601" y2="6.6599868121" />
      <line x1="-6.571790806" y1="4.3556981871" x2="-6.571790806" y2="5.5715868932" />
      <line x1="-8.3706279699" y1="2.6429395403" x2="-8.3706279699" y2="3.9728875649" />
      <line x1="-8.9487875" y1="-2.8196611215" x2="-8.9487875" y2="2.1072763076" />
      <line x1="-8.3774355476" y1="-4.450536825" x2="-8.3774355476" y2="0.4764006041" />
      <line x1="-6.5848279821" y1="-6.0514645121" x2="-6.5848279821" y2="-1.124527083" />
      <line x1="-3.8434146426" y1="-7.1432689562" x2="-3.8434146426" y2="-2.2163315271" />
      <line x1="8.6815009984" y1="-4.4604908745" x2="8.6815009984" y2="0.4664465546" />
      <line x1="9.2596605285" y1="-2.5948796173" x2="9.2596605285" y2="2.3320578118" />
    </g>
  </g>
</svg>