<?xml version='1.0' encoding='utf-8'?>
<svg width="513.0000000002mm" height="437.6976680415mm" viewBox="-17.0196408595 -15.1717701044 38.934977465 33.2197833171" version="1.1" xmlns="http://www.w3.org/2000/svg">
  <g transform="scale(1,-1)" stroke-linecap="round">
    <g fill="none" stroke="rgb(64,192,64)" stroke-width="0.0758966422319351" id="Visible">
      <path d="M 11.257547314,-10.1093851152 L 11.2624216846,-9.9626543422 L 11.2769834983,-9.8091167117 L 11.301049632,-9.6507030486 L 11.33431744,-9.4894054966 L 11.3763685604,-9.327252466 L 11.4266741758,-9.1662831252 L 11.484601664,-9.0085217571 L 11.5494225532,-8.8559523024 L 11.6203216832,-8.7104934105 L 11.6964074562,-8.5739743114 L 11.7767230494,-8.4481118121 L 11.8602584478,-8.3344887063 L 11.9459631452,-8.2345338707 L 12.0327593553,-8.1495042953" />
      <path d="M 12.0327593553,-4.7256362272 C 11.8593081609,-4.8798487275 11.6867744027,-4.9343324923 11.5509894543,-4.8777724714" />
      <path d="M 11.5509894543,-4.8777724714 C 11.4600504057,-4.8393671935 11.3857025811,-4.7529985327 11.3347523577,-4.6265733466 C 11.2844548076,-4.4990515202 11.257909746,-4.3323632878 11.257547314,-4.1417685842" />
      <line x1="12.0327593553" y1="-4.7256362272" x2="12.7821309952" y2="-4.0605631917" />
      <path d="M -2.0471006009,-3.6903565917 A 3.59999999999999,2.6023053198178063 -48.41070095014139 0,0 -4.6146515519,1.3256984709" />
      <path d="M 0.489800825,-3.5557404377 A 3.59999999999999,2.6023053198178063 -48.41070095014139 0,0 -2.0471006009,-3.6903565917" />
      <path d="M 0.6670984852,-0.3721400883 A 3.59999999999999,2.6023053198178063 -48.41070095014139 0,0 0.3658697754,-3.6763472583" />
      <path d="M 0.3658697754,-3.6763472583 A 3.59999999999999,2.6023053198178063 -48.41070095014139 0,0 -1.7420189024,-4.101940288" />
      <line x1="12.7821309952" y1="-4.0605631917" x2="12.7821309952" y2="-7.4844312598" />
      <line x1="12.7821309952" y1="-7.4844312598" x2="12.0327593553" y2="-8.1495042953" />
      <line x1="11.257547314" y1="-18.0100648916" x2="11.257547314" y2="-10.1093851152" />
      <line x1="21.8773882844" y1="-8.5848751803" x2="11.257547314" y2="-18.0100648916" />
      <line x1="21.8773882844" y1="-2.7243630685" x2="21.8773882844" y2="-8.5848751803" />
      <line x1="18.2376369672" y1="-5.9546700723" x2="21.8773882844" y2="-2.7243630685" />
      <line x1="18.2376369672" y1="0.2725269839" x2="18.2376369672" y2="-5.9546700723" />
      <line x1="14.9832893301" y1="-2.6157313197" x2="18.2376369672" y2="0.2725269839" />
      <line x1="14.9832893301" y1="6.0004052948" x2="14.9832893301" y2="-2.6157313197" />
      <line x1="14.9832893301" y1="6.0004052948" x2="11.257547314" y2="2.6937808909" />
      <line x1="11.257547314" y1="-4.1417685842" x2="11.257547314" y2="2.6937808909" />
      <line x1="12.7821309952" y1="-7.4844312598" x2="-1.7420189024" y2="-4.101940288" />
      <path d="M -2.6642641262,-0.4637589885 A 1.05,0.7590057182801957 -48.41070095014139 0,0 -2.4623336088,0.0308259285" />
      <path d="M -2.4623336088,0.0308259285 A 1.0500000000029532,0.7590057182823305 -48.41070095014139 0,0 -1.0683818807,-1.5398104329" />
      <path d="M -1.0683818807,-1.5398104329 A 1.05,0.7590057182801957 -48.41070095014139 0,0 -2.6642641262,-0.4637589885" />
      <line x1="11.257547314" y1="2.6937808909" x2="-16.9816925383" y2="11.8271973795" />
      <line x1="-16.9816925383" y1="11.8271973795" x2="-16.9816925383" y2="-8.876648403" />
      <line x1="-16.9816925383" y1="-8.876648403" x2="11.257547314" y2="-18.0100648916" />
      <line x1="6.3656895119" y1="12.687904187" x2="-0.8661041811" y2="11.4810200579" />
      <path d="M -0.8661041811,11.4810200579 A 1.49999999999998,0.803650894884389 4.0869753698121605e-13 0,1 -1.428706824,11.3085367129" />
      <path d="M 13.0329866761,7.7691289125 A 6.99999999999997,3.7503708427938505 3.7509063985905674e-13 0,1 9.2281932999,7.8617758292" />
      <path d="M 13.7838245206,7.8579377525 A 0.75,0.40182544744219983 -179.9999999999996 0,0 13.0329866761,7.7691289125" />
      <line x1="14.7019628321" y1="8.3212824029" x2="13.7838245206" y2="7.8579377525" />
      <path d="M 15.0635141303,8.8381583204 A 1.0,0.5357672632562664 -179.99999999999963 0,0 15.0801384892,8.7408721486" />
      <path d="M 15.0801384892,8.7408721486 A 1.0,0.5357672632562664 -179.99999999999963 0,0 14.7019628321,8.3212824029" />
      <line x1="15.0635141303" y1="8.8381583204" x2="14.6614250505" y2="10.0048146935" />
      <line x1="14.6614250505" y1="10.0048146935" x2="6.3656895119" y2="12.687904187" />
      <path d="M 8.3743191165,11.3862797985 A 0.750000000000001,0.4018254474421972 -179.99999999999986 0,0 6.9822431297,11.5939464154" />
      <path d="M 6.9822431297,11.5939464154 A 0.750000000000001,0.4018254474421972 -179.99999999999986 1,0 8.4822431297,11.5939464154" />
      <path d="M 8.4822431297,11.5939464154 A 0.750000000000001,0.4018254474421972 -179.99999999999986 0,0 8.3743191165,11.3862797985" />
      <path d="M 12.860139852,9.9354309342 A 0.750000000000001,0.4018254474421972 -179.99999999999986 0,0 11.4680638652,10.1430975511" />
      <path d="M 11.4680638652,10.1430975511 A 0.750000000000001,0.4018254474421972 -179.99999999999986 1,0 12.9680638652,10.1430975511" />
      <path d="M 12.9680638652,10.1430975511 A 0.750000000000001,0.4018254474421972 -179.99999999999986 0,0 12.860139852,9.9354309342" />
      <line x1="-13.2559505222" y1="15.1338217833" x2="-16.9816925383" y2="11.8271973795" />
      <path d="M 18.2376369672,-4.4051059998 A 0.649999999999995,0.3482487211165739 3.3524498425187433e-13 0,1 18.3235731379,-4.2320506886" />
      <path d="M 18.3235731379,-4.2320506886 A 0.649999999999995,0.3482487211165739 3.3524498425187433e-13 0,1 18.2376369672,-4.0589953774" />
      <path d="M 14.9832893301,1.8825839751 A 1.0,0.5357672632562648 -4.595493042553759e-13 0,1 15.0801384892,2.1126013837" />
      <line x1="-13.2559505222" y1="15.1338217833" x2="14.9832893301" y2="6.0004052948" />
      <line x1="18.3249471661" y1="-1.5753971454" x2="21.8773882844" y2="-2.7243630685" />
      <line x1="18.2376369672" y1="-1.6528856116" x2="18.3249471661" y2="-1.5753971454" />
      <line x1="14.7019628321" y1="8.3212824029" x2="14.7019628321" y2="6.0913947155" />
      <line x1="18.2376369672" y1="0.2725269839" x2="15.7271081221" y2="1.0845072521" />
      <path d="M 15.7271081221,1.0845072521 A 8.0,4.286138106050132 -179.9999999999996 0,0 14.9832893301,0.7775977465" />
      <line x1="6.4515256005" y1="12.7234696511" x2="14.5755889619" y2="10.0959040847" />
      <path d="M 6.3656895119,12.687904187 Q 6.3670290365,12.72089157 6.4040151188,12.7282506317" />
      <path d="M 6.4040151188,12.7282506317 Q 6.4256626672,12.7316909879 6.4515256005,12.7234696511" />
      <path d="M 14.5755889619,10.0959040847 C 14.6129328733,10.0841631196 14.6482773787,10.0530710356 14.6581123999,10.0233093308" />
      <path d="M 14.6581123999,10.0233093308 L 14.6614250505,10.0048146935" />
      <line x1="12.0327593553" y1="-8.1495042953" x2="-2.4913905424" y2="-4.7670133235" />
      <path d="M -2.4913905424,-4.7670133235 A 1.5,0.7252886950888098 -103.10978705229424 0,1 -3.1492097269,-6.7542334562" />
      <line x1="-3.1492097269" y1="-6.7542334562" x2="11.257547314" y2="-10.1093851152" />
      <path d="M -2.9477377422,1.1243029771 A 1.5,0.5783545684373719 67.51178643698012 0,0 -3.1492097269,1.822233742" />
      <path d="M -3.1492097269,1.822233742 A 5.1,3.6865992030752297 131.58929904985868 1,1 -3.1492097269,-6.7542334562" />
      <path d="M -2.4913905424,-4.7670133235 A 3.6,2.6023053198178094 -48.41070095014133 0,0 -3.0548762546,-4.5847651567" />
      <path d="M -3.0548762546,-4.5847651567 A 3.6,2.6023053198178094 -48.41070095014133 0,0 -5.1627649324,1.0436186595" />
      <line x1="11.257547314" y1="-4.1417685842" x2="-3.1492097269" y2="1.822233742" />
      <line x1="-2.4913905424" y1="-4.7670133235" x2="-1.7420189024" y2="-4.101940288" />
      <line x1="13.0329866761" y1="7.7691289125" x2="13.0329866761" y2="6.631191623" />
      <line x1="13.7838245206" y1="7.8579377525" x2="13.7838245206" y2="6.3883481617" />
      <line x1="14.5755889619" y1="10.0959040847" x2="14.4775320693" y2="10.3804149167" />
      <path d="M 13.81267322,10.895388381 A 1.425,0.7634683501401737 -179.99999999999986 0,0 14.4775320693,10.3804149167" />
      <line x1="13.81267322" y1="10.895388381" x2="8.127344681" y2="12.7341940179" />
      <path d="M 6.967104086,12.8095124115 A 1.425,0.7634683501401737 -179.99999999999986 0,0 8.127344681,12.7341940179" />
      <line x1="6.967104086" y1="12.8095124115" x2="6.4515256005" y2="12.7234696511" />
      <path d="M 14.4775320693,10.3804149167 A 0.075,0.06227464980513296 19.016554065875614 0,0 14.5484389047,10.3415255883" />
      <path d="M 14.5484389047,10.3415255883 A 0.075,0.06227464980513296 19.016554065875614 0,0 14.5512852424,10.3243839519" />
      <path d="M 13.81267322,10.895388381 A 0.075,0.032728122993919584 72.07723813356382 0,0 13.8357533175,10.9034213702" />
      <path d="M 8.127344681,12.7341940179 A 0.075,0.032728122993919584 72.07723813356382 0,0 8.1504247785,12.7422270071" />
      <path d="M 6.967104086,12.8095124115 A 0.075,0.018833317274180156 99.47454134690015 0,1 6.9547583851,12.8201618969" />
      <path d="M 6.9547583851,12.8201618969 A 0.075,0.018833317274180156 99.47454134690015 0,1 6.9465399118,12.8060805415" />
      <path d="M -2.9477377422,1.1243029771 C -3.4934469864,1.3520016657 -4.0098000983,1.4175689868 -4.3932542747,1.367373699 C -4.7403378952,1.3223033477 -4.9795230752,1.204526677 -5.1627649324,1.0436186595" />
      <line x1="-2.9477377422" y1="1.1243029771" x2="11.5509894487" y2="-4.877772469" />
      <line x1="15.0801384892" y1="8.7408721486" x2="15.0801384892" y2="2.1126013837" />
      <path d="M 14.5484389047,10.3415255883 C 14.5135376118,10.4491346637 14.4358087823,10.5537095075 14.3152524163,10.6552501198 C 14.1954873617,10.7534888239 14.0304055838,10.8407124491 13.8357533175,10.9034213702" />
      <line x1="13.8357533175" y1="10.9034213702" x2="8.1504247785" y2="12.7422270071" />
      <path d="M 8.1504247785,12.7422270071 C 7.7980842334,12.8577471895 7.3498407847,12.8874703311 6.9547583851,12.8201618969" />
      <line x1="6.9547583851" y1="12.8201618969" x2="6.40401512" y2="12.7282506319" />
      <line x1="14.6581123998" y1="10.0233093313" x2="14.5484389047" y2="10.3415255883" />
    </g>
  </g>
</svg>