<?xml version='1.0' encoding='utf-8'?>
<svg width="368.2169035005mm" height="513.0000000006mm" viewBox="-12.386879521 -19.698198881 28.2089342084 39.3007032305" version="1.1" xmlns="http://www.w3.org/2000/svg">
  <g transform="scale(1,-1)" stroke-linecap="round">
    <g fill="none" stroke="rgb(64,192,64)" stroke-width="0.07660955795410386" id="Visible">
      <path d="M -12.2169426932,-15.099890178 A 0.50000001357603,0.36288771799596364 56.235579164607046 0,0 -12.348574742,-14.8179305105" />
      <line x1="-12.3485747309" y1="-14.8179305069" x2="-12.3485747309" y2="-11.5126216759" />
      <path d="M -12.3485747309,-11.5126216759 A 0.499999999999998,0.3628877081428136 56.235579164607095 0,0 -11.9384123975,-10.9369752126" />
      <line x1="-11.9384123975" y1="-10.9369752126" x2="-6.3150497368" y2="-9.1097543096" />
      <path d="M -12.2163021419,10.4120045545 A 0.499999999999998,0.3628877081428136 56.235579164607095 0,0 -12.3485747309,10.6943938036" />
      <line x1="-12.3485747309" y1="10.6943938036" x2="-12.3485747309" y2="14.0001333364" />
      <path d="M -12.3485747309,14.0001333364 A 0.499999999999998,0.3628877081428136 56.235579164607095 0,0 -11.9384123975,14.5757797997" />
      <line x1="-11.9384123975" y1="14.5757797997" x2="3.6477565164" y2="19.6402537374" />
      <path d="M 3.6477565164,19.6402537374 A 0.499999999999998,0.3628877081428136 56.235579164607095 0,0 3.9256462609,19.613547779" />
      <line x1="10.2531796142" y1="-14.4800852675" x2="5.907907969" y2="-15.8920111308" />
      <path d="M 10.6633419588,-13.9044387887 A 0.50000001357603,0.36288771799596364 56.235579164607046 0,0 10.2531796149,-14.4800852673" />
      <line x1="10.6633419476" y1="-5.6188907639" x2="10.6633419476" y2="-13.9044387923" />
      <path d="M -4.3905549229,10.4660008394 A 15.0,10.88663124428437 56.235579164607586 0,0 11.8155722396,15.2906922453" />
      <path d="M 11.8155722396,15.2906922453 A 15.0,10.88663124428437 56.235579164607586 0,0 10.6633419476,-5.6188907639" />
      <line x1="-5.3329892996" y1="10.159772005" x2="-4.3905549229" y2="10.4660008394" />
      <path d="M -5.7431516331,9.5841255418 A 0.499999999999998,0.36288770814281096 56.23557916460761 0,0 -5.3329892996,10.159772005" />
      <line x1="-5.7431516331" y1="8.6103101832" x2="-5.7431516331" y2="9.5841255418" />
      <path d="M -5.7431516331,-8.9619188135 A 15.0,10.88663124428437 56.235579164607586 0,0 -5.7431516331,8.6103101832" />
      <line x1="-5.7431516331" y1="-19.2354639857" x2="-5.7431516331" y2="-8.9619188135" />
      <path d="M -5.3329892996,-19.5445592052 A 0.50000001357603,0.36288771799596364 56.235579164607046 0,0 -5.6109335857,-19.5178167779" />
      <path d="M -5.6109335857,-19.5178167779 A 0.50000001357603,0.36288771799596364 56.235579164607046 0,0 -5.7431516442,-19.2354639893" />
      <line x1="0.9859599682" y1="-17.491318665" x2="-5.3329892996" y2="-19.5445592052" />
      <line x1="5.907907969" y1="-15.8920111308" x2="0.9859599682" y2="-17.491318665" />
      <path d="M 4.0120909397,-14.411475324 A 0.649999999999999,0.47175402058565535 -123.76442083539241 0,1 3.8401365741,-14.0443693002" />
      <path d="M 3.8401365741,-14.0443693002 A 0.650000000021255,0.47175402060108246 -123.76442083539241 1,1 3.1176232385,-15.1250979803" />
      <path d="M 3.1176232385,-15.1250979803 A 0.649999999999999,0.47175402058565535 -123.76442083539241 0,1 4.0120909397,-14.411475324" />
      <path d="M 4.0120909397,11.1010643434 A 0.649999999999999,0.47175402058565535 -123.76442083539241 0,1 3.8401365741,11.4681703672" />
      <path d="M 3.8401365741,11.4681703672 A 0.650000000021255,0.47175402060108246 -123.76442083539241 1,1 3.1176232385,10.3874416871" />
      <path d="M 3.1176232385,10.3874416871 A 0.649999999999999,0.47175402058565535 -123.76442083539241 0,1 4.0120909397,11.1010643434" />
      <line x1="-0.3009519093" y1="0.5402795907" x2="1.5889639985" y2="-3.6835035975" />
      <path d="M 7.2587117219,2.996670231 A 5.0,3.6288770814281235 -123.76442083539241 0,1 6.2577773507,7.6427204426" />
      <path d="M 6.2577773507,7.6427204426 A 5.0,3.6288770814281235 -123.76442083539241 0,1 -0.3009519093,0.5402795907" />
      <line x1="5.3687958141" y1="-2.4553082774" x2="7.2587117219" y2="2.996670231" />
      <path d="M 1.5889639985,-3.6835035975 A 2.5,1.8144385407140617 -123.76442083539241 0,1 2.0894311841,-4.2889319411" />
      <path d="M 2.0894311841,-4.2889319411 A 2.5,1.8144385407140617 -123.76442083539241 0,1 5.3687958141,-2.4553082774" />
      <path d="M 1.8286771219,-4.060076343 A 2.5,1.8144385407140617 -123.76442083539241 0,1 4.7968977104,-2.0729699402" />
      <line x1="4.7968977104" y1="-2.0729699402" x2="6.6868136182" y2="3.3790085682" />
      <line x1="-4.9624530266" y1="10.8483391766" x2="-4.3905549229" y2="10.4660008394" />
      <path d="M 11.2436741359,15.6730305825 A 15.0,10.88663124428437 -123.76442083539241 0,1 -4.9624530266,10.8483391766" />
      <line x1="-6.3150497368" y1="-15.5462911333" x2="-6.3150497368" y2="-8.5795804763" />
      <path d="M -6.3150497368,8.9926485204 A 15.0,10.88663124428437 -123.76442083539241 0,1 -6.3150497368,-8.5795804763" />
      <path d="M 6.6868136182,3.3790085682 A 5.0,3.6288770814281235 -123.76442083539241 0,1 5.9593168546,7.81517511" />
      <path d="M -9.7750332642,-14.8856285156 A 0.999999999999996,0.5059820837823296 -71.99926627216902 0,0 -9.512164334,-14.3169142939" />
      <path d="M -9.512164334,-14.3169142939 A 0.999999999999996,0.5059820837823296 -71.99926627216902 0,0 -8.8941059869,-16.2190194118" />
      <path d="M -8.8941059869,-16.2190194118 A 0.999999999999996,0.5059820837823296 -71.99926627216902 0,0 -9.7750332642,-14.8856285156" />
      <line x1="-6.3150497368" y1="-8.5795804763" x2="-5.7431516331" y2="-8.9619188135" />
      <path d="M -9.7750332642,10.6267410526 A 0.999999999999996,0.5059820837823212 -71.99926627216942 0,0 -9.512164334,11.1954552744" />
      <path d="M -9.512164334,11.1954552744 A 0.999999999999996,0.5059820837823212 -71.99926627216942 0,0 -8.8941059869,9.2933501565" />
      <path d="M -8.8941059869,9.2933501565 A 0.999999999999996,0.5059820837823212 -71.99926627216942 0,0 -9.7750332642,10.6267410526" />
      <line x1="-5.7431516331" y1="8.6103101832" x2="-6.3150497368" y2="8.9926485204" />
      <line x1="5.3687958141" y1="-2.4553082774" x2="4.7968977104" y2="-2.0729699402" />
      <line x1="6.6868136182" y1="3.3790085682" x2="7.2587117219" y2="2.996670231" />
      <line x1="3.6477565164" y1="19.6402537374" x2="7.6036782439" y2="16.9955509038" />
      <line x1="-5.3329892996" y1="10.159772005" x2="-11.9384123975" y2="14.5757797997" />
      <line x1="-9.9751976005" y1="-16.4046346063" x2="-12.3485747309" y2="-14.8179305069" />
      <path d="M -9.9751976116,-16.4046346099 A 0.50000001357603,0.36288771799596364 -123.76442083539297 0,1 -9.8435655628,-16.6865942774" />
      <line x1="-6.3150497368" y1="-14.6964336113" x2="-11.9384123975" y2="-10.9369752126" />
      <line x1="-12.3485747309" y1="-11.5126216759" x2="-6.3150497368" y2="-15.5462911333" />
      <line x1="-5.7431516331" y1="-19.2354639857" x2="-9.9751976005" y2="-16.4046346063" />
      <line x1="-12.3485747309" y1="14.0001333364" x2="-5.7431516331" y2="9.5841255418" />
      <line x1="-7.2919599843" y1="7.3138306202" x2="-12.3485747309" y2="10.6943938036" />
      <line x1="11.2436741359" y1="15.6730305825" x2="11.8155722396" y2="15.2906922453" />
      <path d="M -12.2163021378,-15.1003197676 L -9.8429250074,-16.687023867" />
      <line x1="-9.8429934982" y1="-16.6869780631" x2="-5.6109475308" y2="-19.5178074425" />
      <line x1="3.9256462609" y1="19.613547779" x2="7.9030944689" y2="16.9544535727" />
      <line x1="-12.2163021419" y1="10.4120045545" x2="-7.3662674438" y2="7.169548967" />
    </g>
  </g>
</svg>