<?xml version='1.0' encoding='utf-8'?>
<svg width="513.0000000014mm" height="345.9445577625mm" viewBox="-8.7611835189 -5.9081554735 17.5223670379 11.8163109471" version="1.1" xmlns="http://www.w3.org/2000/svg">
  <g transform="scale(1,-1)" stroke-linecap="round">
    <g fill="none" stroke="rgb(64,192,64)" stroke-width="0.03415666089249837" id="Visible">
      <path d="M 5.4384141964,-0.0122510589 A 1.0,0.5323650255787987 -180.0 0,0 7.2441051885,-0.3275900685" />
      <path d="M 7.2441051885,-0.3275900685 A 1.0,0.5323650255787987 -180.0 0,0 5.2441051885,-0.3275900685" />
      <path d="M 5.2441051885,-0.3275900685 A 1.0,0.5323650255787987 -180.0 0,0 5.4384141964,-0.0122510589" />
      <path d="M -7.0497961805,4.8755035887 A 1.0,0.5323650255787987 -180.0 0,0 -5.2441051885,4.5601645791" />
      <path d="M -5.2441051885,4.5601645791 A 1.0,0.5323650255787987 -180.0 0,0 -7.2441051885,4.5601645791" />
      <path d="M -7.2441051885,4.5601645791 A 1.0,0.5323650255787987 -180.0 0,0 -7.0497961805,4.8755035887" />
      <line x1="7.7249453751" y1="0.7447141955" x2="-4.7632650019" y2="5.6324688431" />
      <path d="M -8.7441051885,0.3275900685 A 2.5,1.3309125639469968 1.8786170647635755e-15 0,1 -7.7249453751,-0.7447141955" />
      <path d="M -4.7632650019,5.6324688431 A 2.5,1.3309125639469968 1.8786170647635755e-15 0,1 -8.7441051885,4.5601645791" />
      <path d="M -8.7441051885,4.5601645791 A 2.5,1.3309125639469968 1.8786170647635755e-15 0,1 -7.7249453751,3.4878603151" />
      <line x1="-7.7249453751" y1="-0.7447141955" x2="4.7632650019" y2="-5.6324688431" />
      <line x1="-7.7249453751" y1="3.4878603151" x2="4.7632650019" y2="-1.3998943325" />
      <path d="M 4.7632650019,-5.6324688431 A 2.5,1.3309125639469968 1.8786170647635755e-15 0,1 8.7441051885,-4.5601645791" />
      <path d="M 4.7632650019,-1.3998943325 A 2.5,1.3309125639469968 1.8786170647635755e-15 0,1 8.7441051885,-0.3275900685" />
      <path d="M 8.7441051885,-0.3275900685 A 2.5,1.3309125639469968 1.8786170647635755e-15 0,1 7.7249453751,0.7447141955" />
      <line x1="-7.7249453751" y1="3.4878603151" x2="-7.7249453751" y2="-0.7447141955" />
      <line x1="4.7632650019" y1="-1.3998943325" x2="4.7632650019" y2="-5.6324688431" />
      <line x1="-8.7441051885" y1="4.5601645791" x2="-8.7441051885" y2="0.3275900685" />
      <line x1="8.7441051885" y1="-0.3275900685" x2="8.7441051885" y2="-4.5601645791" />
    </g>
  </g>
</svg>