<?xml version='1.0' encoding='utf-8'?>
<svg width="513.0000000002mm" height="500.5615544028mm" viewBox="-33.2061906154 -29.0554088851 62.3395820689 60.8280664741" version="1.1" xmlns="http://www.w3.org/2000/svg">
  <g transform="scale(1,-1)" stroke-linecap="round">
    <g fill="none" stroke="rgb(64,192,64)" stroke-width="0.12151965315569778" id="Visible">
      <line x1="-10.4486348469" y1="10.1109829382" x2="-10.4486348469" y2="-19.4883352726" />
      <line x1="12.0643828865" y1="15.5112166306" x2="-10.4486348469" y2="10.1109829382" />
      <line x1="11.467697464" y1="-16.149271636" x2="11.467697464" y2="13.4500465749" />
      <line x1="11.467697464" y1="13.4500465749" x2="-5.8500085443" y2="9.2960206434" />
      <line x1="9.157269756" y1="-16.703477638" x2="11.467697464" y2="-16.149271636" />
      <line x1="-33.1454307889" y1="18.7837085758" x2="-10.4486348469" y2="2.4718761379" />
      <line x1="-33.1454307889" y1="28.1023184299" x2="-8.6965169715" y2="10.5312662648" />
      <line x1="-33.1454307889" y1="28.1023184299" x2="-33.1454307889" y2="18.7837085758" />
      <line x1="-29.4253963588" y1="28.9946490585" x2="-4.9764825414" y2="11.4235968934" />
      <line x1="-29.4253963588" y1="28.9946490585" x2="-33.1454307889" y2="28.1023184299" />
      <path d="M -5.0718806011,11.4921579876 C -5.0518347805,11.4906373648 -5.03178896,11.489116742 -5.0117431395,11.4875961193 C -4.9247047544,11.4829092822 -4.8195830495,11.4855966945 -4.7336746989,11.4930571235 C -4.7054978582,11.4960767731 -4.6773210174,11.4990964227 -4.6491441767,11.5021160723" />
      <path d="M -5.2579568104,12.0048430672 C -5.3035505996,11.9897575912 -5.3441285677,11.9739228139 -5.3796907148,11.9573387352 C -5.4522251332,11.9230607047 -5.5200237524,11.8792043769 -5.5505055434,11.8361382516" />
      <path d="M -3.9890056129,12.4341173308 C -4.4837372352,12.262814992 -4.8902537213,12.1252942855 -5.2579568104,12.0048430672" />
      <path d="M -3.8346561863,12.710002351 Q -3.8028308846,12.6867070333 -3.7863021714,12.6587653986" />
      <path d="M -3.7863021714,12.6587653986 C -3.7651107607,12.6250123102 -3.7722708174,12.5854414364 -3.7964274668,12.5515583112 C -3.8196069818,12.5221662998 -3.8544444646,12.4953558575 -3.900939915,12.4711269842 C -3.9261869047,12.4581546331 -3.9555421374,12.445818082 -3.9890056129,12.4341173308" />
      <line x1="-4.0432969913" y1="12.859949236" x2="-3.8346561863" y2="12.710002351" />
      <path d="M -4.6960231063,12.9422397509 C -4.6548943222,12.9484315647 -4.6144910871,12.9528280892 -4.574813401,12.9554293243 C -4.5061025123,12.9599741145 -4.4226271846,12.9592656878 -4.3547902055,12.952844883 C -4.2924052426,12.9469401143 -4.2221535268,12.93407391 -4.1704359494,12.9184310961 C -4.1187983814,12.9023947684 -4.0764187287,12.882900815 -4.0432969913,12.859949236" />
      <path d="M -6.2255514783,12.7002382292 C -5.7905603243,12.7723305672 -5.3005663037,12.8498572746 -4.6960231063,12.9422397509" />
      <path d="M -6.7236816993,12.6792816153 C -6.7036358788,12.6777609925 -6.6835900583,12.6762403697 -6.6635442378,12.674719747 C -6.5765058527,12.6700329099 -6.4713841478,12.6727203222 -6.3854757972,12.6801807512 C -6.3331097709,12.6846881445 -6.2798016646,12.6913739705 -6.2255514783,12.7002382292" />
      <path d="M -6.9097579086,13.1919666949 C -6.9553516979,13.1768812189 -6.995929666,13.1610464416 -7.031491813,13.1444623629 C -7.1040262314,13.1101843324 -7.1718248507,13.0663280046 -7.2023066416,13.0232618793" />
      <path d="M -5.6408067112,13.6212409585 C -6.1355383334,13.4499386197 -6.5420548195,13.3124179132 -6.9097579086,13.1919666949" />
      <path d="M -5.4864572845,13.8971259787 Q -5.4546319828,13.873830661 -5.4381032697,13.8458890263" />
      <path d="M -5.4381032697,13.8458890263 C -5.416911859,13.8121359379 -5.4240719157,13.7725650641 -5.448228565,13.7386819389 C -5.4714080801,13.7092899275 -5.5062455628,13.6824794852 -5.5527410132,13.6582506119 C -5.577988003,13.6452782608 -5.6073432356,13.6329417097 -5.6408067112,13.6212409585" />
      <line x1="-5.6950980896" y1="14.0470728637" x2="-5.4864572845" y2="13.8971259787" />
      <path d="M -6.3478242045,14.1293633786 C -6.3066954205,14.1355551924 -6.2662921854,14.1399517169 -6.2266144993,14.142552952 C -6.1579036106,14.1470977422 -6.0744282829,14.1463893155 -6.0065913037,14.1399685107 C -5.9442063408,14.134063742 -5.8739546251,14.1211975377 -5.8222370477,14.1055547238 C -5.7705994797,14.0895183961 -5.728219827,14.0700244427 -5.6950980896,14.0470728637" />
      <path d="M -7.8773525766,13.8873618569 C -7.4423614226,13.9594541948 -6.952367402,14.0369809023 -6.3478242045,14.1293633786" />
      <path d="M -8.3754827976,13.866405243 C -8.3554369771,13.8648846202 -8.3353911565,13.8633639974 -8.315345336,13.8618433746 C -8.228306951,13.8571565376 -8.123185246,13.8598439499 -8.0372768955,13.8673043788 C -7.9849108692,13.8718117722 -7.9316027629,13.8784975982 -7.8773525766,13.8873618569" />
      <path d="M -8.5615590069,14.3790903226 C -8.6071527961,14.3640048466 -8.6477307643,14.3481700693 -8.6832929113,14.3315859906 C -8.7558273297,14.2973079601 -8.823625949,14.2534516322 -8.8541077399,14.2103855069" />
      <path d="M -7.2926078095,14.8083645862 C -7.7873394317,14.6370622474 -8.1938559178,14.4995415409 -8.5615590069,14.3790903226" />
      <path d="M -7.1382583828,15.0842496064 Q -7.1064330811,15.0609542887 -7.0899043679,15.0330126539" />
      <path d="M -7.0899043679,15.0330126539 C -7.0687129573,14.9992595656 -7.0758730139,14.9596886918 -7.1000296633,14.9258055666 C -7.1232091784,14.8964135552 -7.1580466611,14.8696031129 -7.2045421115,14.8453742396 C -7.2297891012,14.8324018885 -7.2591443339,14.8200653374 -7.2926078095,14.8083645862" />
      <line x1="-7.3468991878" y1="15.2341964914" x2="-7.1382583828" y2="15.0842496064" />
      <path d="M -7.9996253028,15.3164870063 C -7.9584965187,15.3226788201 -7.9180932836,15.3270753446 -7.8784155975,15.3296765797 C -7.8097047088,15.3342213699 -7.7262293811,15.3335129432 -7.658392402,15.3270921384 C -7.5960074391,15.3211873696 -7.5257557233,15.3083211654 -7.4740381459,15.2926783515 C -7.4224005779,15.2766420237 -7.3800209252,15.2571480704 -7.3468991878,15.2341964914" />
      <path d="M -9.5291536748,15.0744854846 C -9.0941625209,15.1465778225 -8.6041685002,15.22410453 -7.9996253028,15.3164870063" />
      <path d="M -10.0272838958,15.0535288706 C -10.0072380753,15.0520082479 -9.9871922548,15.0504876251 -9.9671464343,15.0489670023 C -9.8801080492,15.0442801653 -9.7749863443,15.0469675776 -9.6890779937,15.0544280065 C -9.6367119675,15.0589353999 -9.5834038612,15.0656212259 -9.5291536748,15.0744854846" />
      <path d="M -10.2133601051,15.5662139503 C -10.2589538944,15.5511284743 -10.2995318625,15.535293697 -10.3350940095,15.5187096183 C -10.4076284279,15.4844315878 -10.4754270472,15.4405752599 -10.5059088382,15.3975091346" />
      <path d="M -8.9444089077,15.9954882139 C -9.4391405299,15.8241858751 -9.8456570161,15.6866651686 -10.2133601051,15.5662139503" />
      <path d="M -8.7900594811,16.2713732341 Q -8.7582341794,16.2480779163 -8.7417054662,16.2201362816" />
      <path d="M -8.7417054662,16.2201362816 C -8.7205140555,16.1863831933 -8.7276741122,16.1468123194 -8.7518307615,16.1129291943 C -8.7750102766,16.0835371829 -8.8098477594,16.0567267405 -8.8563432097,16.0324978673 C -8.8815901995,16.0195255162 -8.9109454322,16.0071889651 -8.9444089077,15.9954882139" />
      <line x1="-8.9987002861" y1="16.4213201191" x2="-8.7900594811" y2="16.2713732341" />
      <path d="M -9.651426401,16.503610634 C -9.610297617,16.5098024478 -9.5698943819,16.5141989722 -9.5302166958,16.5168002074 C -9.4615058071,16.5213449976 -9.3780304794,16.5206365709 -9.3101935002,16.514215766 C -9.2478085373,16.5083109973 -9.1775568216,16.4954447931 -9.1258392442,16.4798019792 C -9.0742016762,16.4637656514 -9.0318220235,16.4442716981 -8.9987002861,16.4213201191" />
      <path d="M -11.1809547731,16.2616091123 C -10.7459636191,16.3337014502 -10.2559695985,16.4112281576 -9.651426401,16.503610634" />
      <path d="M -11.6790849941,16.2406524983 C -11.6590391736,16.2391318756 -11.6389933531,16.2376112528 -11.6189475325,16.23609063 C -11.5319091475,16.231403793 -11.4267874426,16.2340912053 -11.340879092,16.2415516342 C -11.2885130657,16.2460590276 -11.2352049594,16.2527448536 -11.1809547731,16.2616091123" />
      <path d="M -11.8651612034,16.7533375779 C -11.9107549926,16.738252102 -11.9513329608,16.7224173247 -11.9868951078,16.705833246 C -12.0594295262,16.6715552155 -12.1272281455,16.6276988876 -12.1577099364,16.5846327623" />
      <path d="M -10.596210006,17.1826118416 C -11.0909416282,17.0113095028 -11.4974581143,16.8737887962 -11.8651612034,16.7533375779" />
      <path d="M -10.4418605793,17.4584968618 Q -10.4100352776,17.435201544 -10.3935065645,17.4072599093" />
      <path d="M -10.3935065645,17.4072599093 C -10.3723151538,17.373506821 -10.3794752105,17.3339359471 -10.4036318598,17.300052822 C -10.4268113749,17.2706608106 -10.4616488576,17.2438503682 -10.508144308,17.2196214949 C -10.5333912978,17.2066491439 -10.5627465304,17.1943125928 -10.596210006,17.1826118416" />
      <line x1="-10.6505013843" y1="17.6084437468" x2="-10.4418605793" y2="17.4584968618" />
      <path d="M -11.3032274993,17.6907342616 C -11.2620987153,17.6969260755 -11.2216954802,17.7013225999 -11.182017794,17.7039238351 C -11.1133069054,17.7084686252 -11.0298315777,17.7077601986 -10.9619945985,17.7013393937 C -10.8996096356,17.695434625 -10.8293579198,17.6825684208 -10.7776403425,17.6669256068 C -10.7260027744,17.6508892791 -10.6836231217,17.6313953258 -10.6505013843,17.6084437468" />
      <path d="M -12.8327558713,17.44873274 C -12.3977647174,17.5208250779 -11.9077706968,17.5983517853 -11.3032274993,17.6907342616" />
      <path d="M -13.3308860924,17.427776126 C -13.3108402718,17.4262555032 -13.2907944513,17.4247348805 -13.2707486308,17.4232142577 C -13.1837102457,17.4185274207 -13.0785885408,17.4212148329 -12.9926801902,17.4286752619 C -12.940314164,17.4331826553 -12.8870060577,17.4398684813 -12.8327558713,17.44873274" />
      <path d="M -13.5169623017,17.9404612056 C -13.5625560909,17.9253757297 -13.603134059,17.9095409524 -13.6386962061,17.8929568737 C -13.7112306245,17.8586788432 -13.7790292437,17.8148225153 -13.8095110347,17.77175639" />
      <path d="M -12.2480111042,18.3697354693 C -12.7427427265,18.1984331305 -13.1492592126,18.0609124239 -13.5169623017,17.9404612056" />
      <path d="M -12.0936616776,18.6456204895 Q -12.0618363759,18.6223251717 -12.0453076627,18.594383537" />
      <path d="M -12.0453076627,18.594383537 C -12.024116252,18.5606304487 -12.0312763087,18.5210595748 -12.0554329581,18.4871764497 C -12.0786124731,18.4577844383 -12.1134499559,18.4309739959 -12.1599454063,18.4067451226 C -12.185192396,18.3937727716 -12.2145476287,18.3814362205 -12.2480111042,18.3697354693" />
      <line x1="-12.3023024826" y1="18.7955673745" x2="-12.0936616776" y2="18.6456204895" />
      <path d="M -12.9550285976,18.8778578893 C -12.9138998135,18.8840497031 -12.8734965784,18.8884462276 -12.8338188923,18.8910474628 C -12.7651080036,18.8955922529 -12.6816326759,18.8948838263 -12.6137956968,18.8884630214 C -12.5514107339,18.8825582527 -12.4811590181,18.8696920485 -12.4294414407,18.8540492345 C -12.3778038727,18.8380129068 -12.33542422,18.8185189534 -12.3023024826,18.7955673745" />
      <path d="M -14.4845569696,18.6358563676 C -14.0495658156,18.7079487056 -13.559571795,18.785475413 -12.9550285976,18.8778578893" />
      <path d="M -14.9826871906,18.6148997537 C -14.9626413701,18.6133791309 -14.9425955496,18.6118585082 -14.922549729,18.6103378854 C -14.835511344,18.6056510484 -14.7303896391,18.6083384606 -14.6444812885,18.6157988896 C -14.5921152622,18.6203062829 -14.5388071559,18.626992109 -14.4845569696,18.6358563676" />
      <path d="M -15.1687633999,19.1275848333 C -15.2143571892,19.1124993574 -15.2549351573,19.09666458 -15.2904973043,19.0800805014 C -15.3630317227,19.0458024709 -15.430830342,19.001946143 -15.4613121329,18.9588800177" />
      <path d="M -13.8998122025,19.5568590969 C -14.3945438247,19.3855567581 -14.8010603108,19.2480360516 -15.1687633999,19.1275848333" />
      <path d="M -13.7454627758,19.8327441172 Q -13.7136374741,19.8094487994 -13.697108761,19.7815071647" />
      <path d="M -13.697108761,19.7815071647 C -13.6759173503,19.7477540763 -13.683077407,19.7081832025 -13.7072340563,19.6743000774 C -13.7304135714,19.644908066 -13.7652510541,19.6180976236 -13.8117465045,19.5938687503 C -13.8369934943,19.5808963993 -13.8663487269,19.5685598481 -13.8998122025,19.5568590969" />
      <line x1="-13.9541035809" y1="19.9826910022" x2="-13.7454627758" y2="19.8327441172" />
      <path d="M -14.6068296958,20.064981517 C -14.5657009118,20.0711733308 -14.5252976767,20.0755698553 -14.4856199906,20.0781710905 C -14.4169091019,20.0827158806 -14.3334337742,20.0820074539 -14.265596795,20.0755866491 C -14.2032118321,20.0696818804 -14.1329601164,20.0568156762 -14.081242539,20.0411728622 C -14.029604971,20.0251365345 -13.9872253183,20.0056425811 -13.9541035809,19.9826910022" />
      <path d="M -16.1363580679,19.8229799953 C -15.7013669139,19.8950723333 -15.2113728933,19.9725990407 -14.6068296958,20.064981517" />
      <path d="M -16.6344882889,19.8020233814 C -16.6144424684,19.8005027586 -16.5943966478,19.7989821358 -16.5743508273,19.7974615131 C -16.4873124423,19.7927746761 -16.3821907373,19.7954620883 -16.2962823868,19.8029225173 C -16.2439163605,19.8074299106 -16.1906082542,19.8141157366 -16.1363580679,19.8229799953" />
      <path d="M -16.8205644982,20.314708461 C -16.8661582874,20.299622985 -16.9067362555,20.2837882077 -16.9422984026,20.267204129 C -17.014832821,20.2329260985 -17.0826314403,20.1890697707 -17.1131132312,20.1460036454" />
      <path d="M -15.5516133007,20.7439827246 C -16.046344923,20.5726803858 -16.4528614091,20.4351596793 -16.8205644982,20.314708461" />
      <path d="M -15.3972638741,21.0198677448 Q -15.3654385724,20.9965724271 -15.3489098592,20.9686307924" />
      <path d="M -15.3489098592,20.9686307924 C -15.3277184486,20.934877704 -15.3348785052,20.8953068302 -15.3590351546,20.861423705 C -15.3822146697,20.8320316936 -15.4170521524,20.8052212513 -15.4635476028,20.780992378 C -15.4887945925,20.768020027 -15.5181498252,20.7556834758 -15.5516133007,20.7439827246" />
      <line x1="-15.6059046791" y1="21.1698146298" x2="-15.3972638741" y2="21.0198677448" />
      <path d="M -16.2586307941,21.2521051447 C -16.21750201,21.2582969585 -16.1770987749,21.262693483 -16.1374210888,21.2652947182 C -16.0687102001,21.2698395083 -15.9852348724,21.2691310816 -15.9173978933,21.2627102768 C -15.8550129304,21.2568055081 -15.7847612146,21.2439393039 -15.7330436372,21.2282964899 C -15.6814060692,21.2122601622 -15.6390264165,21.1927662088 -15.6059046791,21.1698146298" />
      <path d="M -17.7881591661,21.010103623 C -17.3531680122,21.082195961 -16.8631739915,21.1597226684 -16.2586307941,21.2521051447" />
      <path d="M -18.2862893871,20.9891470091 C -18.2662435666,20.9876263863 -18.2461977461,20.9861057635 -18.2261519256,20.9845851408 C -18.1391135405,20.9798983037 -18.0339918356,20.982585716 -17.948083485,20.990046145 C -17.8957174588,20.9945535383 -17.8424093525,21.0012393643 -17.7881591661,21.010103623" />
      <path d="M -18.4723655964,21.5018320887 C -18.5179593857,21.4867466127 -18.5585373538,21.4709118354 -18.5940995008,21.4543277567 C -18.6666339192,21.4200497262 -18.7344325385,21.3761933984 -18.7649143295,21.3331272731" />
      <path d="M -17.203414399,21.9311063523 C -17.6981460212,21.7598040135 -18.1046625074,21.622283307 -18.4723655964,21.5018320887" />
      <path d="M -17.0490649724,22.2069913725 Q -17.0172396707,22.1836960548 -17.0007109575,22.1557544201" />
      <path d="M -17.0007109575,22.1557544201 C -16.9795195468,22.1220013317 -16.9866796035,22.0824304579 -17.0108362528,22.0485473327 C -17.0340157679,22.0191553213 -17.0688532507,21.992344879 -17.115348701,21.9681160057 C -17.1405956908,21.9551436546 -17.1699509235,21.9428071035 -17.203414399,21.9311063523" />
      <line x1="-17.2577057774" y1="22.3569382575" x2="-17.0490649724" y2="22.2069913725" />
      <path d="M -17.9104318923,22.4392287724 C -17.8693031083,22.4454205862 -17.8288998732,22.4498171107 -17.7892221871,22.4524183458 C -17.7205112984,22.456963136 -17.6370359707,22.4562547093 -17.5691989915,22.4498339045 C -17.5068140286,22.4439291358 -17.4365623129,22.4310629315 -17.3848447355,22.4154201176 C -17.3332071675,22.3993837899 -17.2908275148,22.3798898365 -17.2577057774,22.3569382575" />
      <path d="M -19.4399602644,22.1972272507 C -19.0049691104,22.2693195887 -18.5149750898,22.3468462961 -17.9104318923,22.4392287724" />
      <path d="M -19.9380904854,22.1762706368 C -19.9180446649,22.174750014 -19.8979988444,22.1732293912 -19.8779530238,22.1717087684 C -19.7909146388,22.1670219314 -19.6857929339,22.1697093437 -19.5998845833,22.1771697726 C -19.547518557,22.181677166 -19.4942104507,22.188362992 -19.4399602644,22.1972272507" />
      <path d="M -20.1241666947,22.6889557164 C -20.1697604839,22.6738702404 -20.2103384521,22.6580354631 -20.2459005991,22.6414513844 C -20.3184350175,22.6071733539 -20.3862336368,22.563317026 -20.4167154277,22.5202509007" />
      <path d="M -18.8552154973,23.11822998 C -19.3499471195,22.9469276412 -19.7564636056,22.8094069347 -20.1241666947,22.6889557164" />
      <path d="M -18.7008660706,23.3941150002 Q -18.6690407689,23.3708196825 -18.6525120558,23.3428780478" />
      <path d="M -18.6525120558,23.3428780478 C -18.6313206451,23.3091249594 -18.6384807018,23.2695540856 -18.6626373511,23.2356709604 C -18.6858168662,23.206278949 -18.7206543489,23.1794685067 -18.7671497993,23.1552396334 C -18.7923967891,23.1422672823 -18.8217520217,23.1299307312 -18.8552154973,23.11822998" />
      <line x1="-18.9095068756" y1="23.5440618852" x2="-18.7008660706" y2="23.3941150002" />
      <path d="M -19.5622329906,23.6263524001 C -19.5211042066,23.6325442139 -19.4807009715,23.6369407384 -19.4410232853,23.6395419735 C -19.3723123967,23.6440867637 -19.288837069,23.643378337 -19.2210000898,23.6369575322 C -19.1586151269,23.6310527634 -19.0883634111,23.6181865592 -19.0366458337,23.6025437453 C -18.9850082657,23.5865074175 -18.942628613,23.5670134642 -18.9095068756,23.5440618852" />
      <path d="M -21.0917613626,23.3843508784 C -20.6567702087,23.4564432163 -20.1667761881,23.5339699238 -19.5622329906,23.6263524001" />
      <path d="M -21.5898915837,23.3633942644 C -21.5698457631,23.3618736417 -21.5497999426,23.3603530189 -21.5297541221,23.3588323961 C -21.442715737,23.3541455591 -21.3375940321,23.3568329714 -21.2516856815,23.3642934003 C -21.1993196553,23.3688007937 -21.146011549,23.3754866197 -21.0917613626,23.3843508784" />
      <path d="M -21.775967793,23.8760793441 C -21.8215615822,23.8609938681 -21.8621395503,23.8451590908 -21.8977016974,23.8285750121 C -21.9702361157,23.7942969816 -22.038034735,23.7504406537 -22.068516526,23.7073745284" />
      <path d="M -20.5070165955,24.3053536077 C -21.0017482178,24.1340512689 -21.4082647039,23.9965305624 -21.775967793,23.8760793441" />
      <path d="M -20.3526671689,24.5812386279 Q -20.3208418672,24.5579433101 -20.304313154,24.5300016754" />
      <path d="M -20.304313154,24.5300016754 C -20.2831217433,24.4962485871 -20.2902818,24.4566777133 -20.3144384494,24.4227945881 C -20.3376179644,24.3934025767 -20.3724554472,24.3665921344 -20.4189508976,24.3423632611 C -20.4441978873,24.32939091 -20.47355312,24.3170543589 -20.5070165955,24.3053536077" />
      <line x1="-20.5613079739" y1="24.7311855129" x2="-20.3526671689" y2="24.5812386279" />
      <path d="M -21.2140340889,24.8134760278 C -21.1729053048,24.8196678416 -21.1325020697,24.8240643661 -21.0928243836,24.8266656012 C -21.0241134949,24.8312103914 -20.9406381672,24.8305019647 -20.8728011881,24.8240811598 C -20.8104162252,24.8181763911 -20.7401645094,24.8053101869 -20.688446932,24.789667373 C -20.636809364,24.7736310452 -20.5944297113,24.7541370919 -20.5613079739,24.7311855129" />
      <path d="M -22.7435624609,24.5714745061 C -22.3085713069,24.643566844 -21.8185772863,24.7210935515 -21.2140340889,24.8134760278" />
      <path d="M -23.2416926819,24.5505178921 C -23.2216468614,24.5489972694 -23.2016010409,24.5474766466 -23.1815552203,24.5459560238 C -23.0945168353,24.5412691868 -22.9893951304,24.5439565991 -22.9034867798,24.551417028 C -22.8511207535,24.5559244214 -22.7978126472,24.5626102474 -22.7435624609,24.5714745061" />
      <path d="M -23.4277688912,25.0632029718 C -23.4733626805,25.0481174958 -23.5139406486,25.0322827185 -23.5495027956,25.0156986398 C -23.622037214,24.9814206093 -23.6898358333,24.9375642814 -23.7203176242,24.8944981561" />
      <path d="M -22.1588176938,25.4924772354 C -22.653549316,25.3211748966 -23.0600658021,25.18365419 -23.4277688912,25.0632029718" />
      <path d="M -22.0044682671,25.7683622556 Q -21.9726429654,25.7450669378 -21.9561142523,25.7171253031" />
      <path d="M -21.9561142523,25.7171253031 C -21.9349228416,25.6833722148 -21.9420828983,25.6438013409 -21.9662395476,25.6099182158 C -21.9894190627,25.5805262044 -22.0242565454,25.553715762 -22.0707519958,25.5294868887 C -22.0959989856,25.5165145377 -22.1253542182,25.5041779866 -22.1588176938,25.4924772354" />
      <line x1="-22.2131090722" y1="25.9183091406" x2="-22.0044682671" y2="25.7683622556" />
      <path d="M -22.8658351871,26.0005996555 C -22.8247064031,26.0067914693 -22.784303168,26.0111879937 -22.7446254819,26.0137892289 C -22.6759145932,26.0183340191 -22.5924392655,26.0176255924 -22.5246022863,26.0112047875 C -22.4622173234,26.0053000188 -22.3919656077,25.9924338146 -22.3402480303,25.9767910007 C -22.2886104623,25.9607546729 -22.2462308096,25.9412607196 -22.2131090722,25.9183091406" />
      <path d="M -24.3953635592,25.7585981338 C -23.9603724052,25.8306904717 -23.4703783846,25.9082171791 -22.8658351871,26.0005996555" />
      <path d="M -24.8934937802,25.7376415198 C -24.8734479597,25.736120897 -24.8534021391,25.7346002743 -24.8333563186,25.7330796515 C -24.7463179336,25.7283928145 -24.6411962286,25.7310802267 -24.5552878781,25.7385406557 C -24.5029218518,25.7430480491 -24.4496137455,25.7497338751 -24.3953635592,25.7585981338" />
      <path d="M -25.0795699895,26.2503265994 C -25.1251637787,26.2352411235 -25.1657417468,26.2194063462 -25.2013038939,26.2028222675 C -25.2738383123,26.168544237 -25.3416369316,26.1246879091 -25.3721187225,26.0816217838" />
      <path d="M -23.810618792,26.6796008631 C -24.3053504143,26.5082985243 -24.7118669004,26.3707778177 -25.0795699895,26.2503265994" />
      <path d="M -23.6562693654,26.9554858833 Q -23.6244440637,26.9321905655 -23.6079153505,26.9042489308" />
      <path d="M -23.6079153505,26.9042489308 C -23.5867239399,26.8704958425 -23.5938839965,26.8309249686 -23.6180406459,26.7970418435 C -23.641220161,26.7676498321 -23.6760576437,26.7408393897 -23.7225530941,26.7166105164 C -23.7478000838,26.7036381654 -23.7771553165,26.6913016143 -23.810618792,26.6796008631" />
      <line x1="-23.8649101704" y1="27.1054327683" x2="-23.6562693654" y2="26.9554858833" />
      <path d="M -24.5176362854,27.1877232831 C -24.4765075013,27.1939150969 -24.4361042662,27.1983116214 -24.3964265801,27.2009128566 C -24.3277156914,27.2054576467 -24.2442403637,27.2047492201 -24.1764033846,27.1983284152 C -24.1140184217,27.1924236465 -24.0437667059,27.1795574423 -23.9920491285,27.1639146283 C -23.9404115605,27.1478783006 -23.8980319078,27.1283843473 -23.8649101704,27.1054327683" />
      <path d="M -26.0471646574,26.9457217615 C -25.6121735035,27.0178140994 -25.1221794828,27.0953408068 -24.5176362854,27.1877232831" />
      <path d="M -26.5452948784,26.9247651475 C -26.5252490579,26.9232445247 -26.5052032374,26.921723902 -26.4851574169,26.9202032792 C -26.3981190318,26.9155164422 -26.2929973269,26.9182038544 -26.2070889763,26.9256642834 C -26.1547229501,26.9301716767 -26.1014148438,26.9368575028 -26.0471646574,26.9457217615" />
      <path d="M 3.9830017505,-1.9603608528 A 0.999999999999996,0.4550855321335946 -76.51122276865664 0,0 4.2499894634,-1.3474617689" />
      <path d="M 4.2499894634,-1.3474617689 A 1.0000000000081581,0.45508553213730907 -76.51122276865664 0,0 4.7164992576,-3.2922930243" />
      <path d="M 4.7164992576,-3.2922930243 A 0.999999999999996,0.4550855321335946 -76.51122276865664 0,0 3.9830017505,-1.9603608528" />
      <line x1="9.157269756" y1="-31.088793882" x2="9.157269756" y2="-1.4894756711" />
      <line x1="9.157269756" y1="-1.4894756711" x2="-5.8500085443" y2="9.2960206434" />
      <line x1="6.5596138935" y1="-31.7118977624" x2="6.5596138935" y2="-2.1125795516" />
      <line x1="9.157269756" y1="-31.088793882" x2="6.5596138935" y2="-31.7118977624" />
      <line x1="9.157269756" y1="-1.4894756711" x2="6.5596138935" y2="-2.1125795516" />
      <line x1="-10.4486348469" y1="-19.4883352726" x2="6.5596138935" y2="-31.7118977624" />
      <line x1="6.5596138935" y1="-2.1125795516" x2="-10.4486348469" y2="10.1109829382" />
      <path d="M 3.9830017505,-28.1932824876 A 0.999999999999996,0.45508553213359226 -76.51122276865645 0,0 4.2499894634,-27.5803834037" />
      <path d="M 4.2499894634,-27.5803834037 A 1.0000000000081586,0.45508553213730696 -76.51122276865645 0,0 4.7164992576,-29.5252146591" />
      <path d="M 4.7164992576,-29.5252146591 A 0.999999999999996,0.45508553213359226 -76.51122276865645 0,0 3.9830017505,-28.1932824876" />
      <line x1="29.0726316269" y1="-26.3116640701" x2="26.4749757643" y2="-26.9347679505" />
      <line x1="26.4749757643" y1="-26.9347679505" x2="11.467697464" y2="-16.149271636" />
      <line x1="29.0726316269" y1="3.2876541408" x2="12.0643828865" y2="15.5112166306" />
      <line x1="29.0726316269" y1="-26.3116640701" x2="29.0726316269" y2="3.2876541408" />
      <line x1="26.4749757643" y1="2.6645502604" x2="11.467697464" y2="13.4500465749" />
      <line x1="29.0726316269" y1="3.2876541408" x2="26.4749757643" y2="2.6645502604" />
      <path d="M 23.8983636213,2.8167689591 A 0.999999999999996,0.4550855321335946 -76.51122276865664 0,0 24.1653513342,3.429668043" />
      <path d="M 24.1653513342,3.429668043 A 1.0000000000198206,0.4550855321426165 -76.51122276865664 0,0 24.6318611285,1.4848367876" />
      <path d="M 24.6318611285,1.4848367876 A 0.999999999999996,0.4550855321335946 -76.51122276865664 0,0 23.8983636213,2.8167689591" />
      <line x1="26.4749757643" y1="-26.9347679505" x2="26.4749757643" y2="2.6645502604" />
      <path d="M 23.8983636213,-23.4161526756 A 0.999999999999996,0.45508553213359226 -76.51122276865645 0,0 24.1653513342,-22.8032535917" />
      <path d="M 24.1653513342,-22.8032535917 A 1.000000000019821,0.4550855321426143 -76.51122276865645 0,0 24.6318611285,-24.7480848471" />
      <path d="M 24.6318611285,-24.7480848471 A 0.999999999999996,0.45508553213359226 -76.51122276865645 0,0 23.8983636213,-23.4161526756" />
      <path d="M -24.6403059728,25.7330247554 A 3.49030188459267,2.749385889791209 -125.70421179279269 0,1 -25.0795699895,26.2503265994" />
      <path d="M -23.4487073363,25.9105841048 A 4.79255587789306,3.7751993788505347 -125.70421179279269 0,1 -23.810618792,26.6796008631" />
      <path d="M -22.9885048746,24.5459011277 A 3.49030188459267,2.749385889791209 -125.70421179279269 0,1 -23.4277688912,25.0632029718" />
      <path d="M -21.7969062381,24.7234604771 A 4.79255587789306,3.7751993788505347 -125.70421179279269 0,1 -22.1588176938,25.4924772354" />
      <path d="M -21.3367037763,23.3587775 A 3.49030188459267,2.749385889791209 -125.70421179279269 0,1 -21.775967793,23.8760793441" />
      <path d="M -20.1451051398,23.5363368494 A 4.79255587789306,3.7751993788505347 -125.70421179279269 0,1 -20.5070165955,24.3053536077" />
      <path d="M -19.6849026781,22.1716538724 A 3.49030188459267,2.749385889791209 -125.70421179279269 0,1 -20.1241666947,22.6889557164" />
      <path d="M -18.4933040416,22.3492132218 A 4.79255587789306,3.7751993788505347 -125.70421179279269 0,1 -18.8552154973,23.11822998" />
      <path d="M -18.0331015798,20.9845302447 A 3.49030188459267,2.749385889791209 -125.70421179279269 0,1 -18.4723655964,21.5018320887" />
      <path d="M -16.8415029433,21.1620895941 A 4.79255587789306,3.7751993788505347 -125.70421179279269 0,1 -17.203414399,21.9311063523" />
      <path d="M -16.3813004815,19.797406617 A 3.49030188459267,2.749385889791209 -125.70421179279269 0,1 -16.8205644982,20.314708461" />
      <path d="M -15.189701845,19.9749659664 A 4.79255587789306,3.7751993788505347 -125.70421179279269 0,1 -15.5516133008,20.7439827246" />
      <path d="M -14.7294993833,18.6102829893 A 3.49030188459267,2.749385889791209 -125.70421179279269 0,1 -15.1687633999,19.1275848333" />
      <path d="M -13.5379007468,18.7878423387 A 4.79255587789306,3.7751993788505347 -125.70421179279269 0,1 -13.8998122025,19.5568590969" />
      <path d="M -13.077698285,17.4231593616 A 3.49030188459267,2.749385889791209 -125.70421179279269 0,1 -13.5169623017,17.9404612056" />
      <path d="M -11.8860996485,17.600718711 A 4.79255587789306,3.7751993788505347 -125.70421179279269 0,1 -12.2480111042,18.3697354693" />
      <path d="M -11.4258971868,16.2360357339 A 3.49030188459267,2.749385889791209 -125.70421179279269 0,1 -11.8651612034,16.7533375779" />
      <path d="M -10.2342985503,16.4135950833 A 4.79255587789306,3.7751993788505347 -125.70421179279269 0,1 -10.596210006,17.1826118416" />
      <path d="M -9.7740960885,15.0489121062 A 3.49030188459267,2.749385889791209 -125.70421179279269 0,1 -10.2133601051,15.5662139503" />
      <path d="M -8.582497452,15.2264714556 A 4.79255587789306,3.7751993788505347 -125.70421179279269 0,1 -8.9444089077,15.9954882139" />
      <path d="M -8.1222949902,13.8617884786 A 3.49030188459267,2.749385889791209 -125.70421179279269 0,1 -8.5615590069,14.3790903226" />
      <path d="M -6.9306963537,14.039347828 A 4.79255587789306,3.7751993788505347 -125.70421179279269 0,1 -7.2926078095,14.8083645862" />
      <path d="M -6.470493892,12.6746648509 A 3.49030188459267,2.749385889791209 -125.70421179279269 0,1 -6.9097579086,13.1919666949" />
      <path d="M -5.2788952555,12.8522242003 A 4.79255587789306,3.7751993788505347 -125.70421179279269 0,1 -5.6408067112,13.6212409585" />
      <path d="M -4.8186927937,11.4875412232 A 3.49030188459267,2.749385889791209 -125.70421179279269 0,1 -5.2579568104,12.0048430672" />
      <path d="M -3.6530505129,11.7410506579 A 4.79255587789306,3.7751993788505347 -125.70421179279269 0,1 -3.9890056129,12.4341173308" />
      <path d="M -23.2223526882,25.9457877269 Q -23.356171514,26.4596570526 -23.6075708003,26.9044456494" />
      <path d="M -21.57055159,24.7586640993 Q -21.7043704157,25.2725334249 -21.9557697021,25.7173220217" />
      <path d="M -19.9187504917,23.5715404716 Q -20.0525693175,24.0854097972 -20.3039686038,24.530198394" />
      <path d="M -18.2669493934,22.3844168439 Q -18.4007682192,22.8982861696 -18.6521675056,23.3430747663" />
      <path d="M -16.6151482952,21.1972932162 Q -16.748967121,21.7111625419 -17.0003664073,22.1559511386" />
      <path d="M -14.9633471969,20.0101695885 Q -15.0971660227,20.5240389142 -15.348565309,20.968827511" />
      <path d="M -13.3115460987,18.8230459608 Q -13.4453649244,19.3369152865 -13.6967642108,19.7817038833" />
      <path d="M -11.6597450004,17.6359223331 Q -11.7935638262,18.1497916588 -12.0449631125,18.5945802556" />
      <path d="M -10.0079439021,16.4487987054 Q -10.1417627279,16.9626680311 -10.3931620143,17.4074566279" />
      <path d="M -8.3561428039,15.2616750778 Q -8.4899616297,15.7755444034 -8.741360916,16.2203330002" />
      <path d="M -6.7043417056,14.0745514501 Q -6.8381605314,14.5884207757 -7.0895598177,15.0332093725" />
      <path d="M -5.0525406074,12.8874278224 Q -5.1863594331,13.4012971481 -5.4377587195,13.8460857448" />
      <path d="M -3.4266606204,11.7953551647 Q -3.5581464416,12.2560732682 -3.7859576212,12.6589621171" />
    </g>
  </g>
</svg>