<?xml version='1.0' encoding='utf-8'?>
<svg width="513.0000000004mm" height="259.3040203217mm" viewBox="-14.4398020388 -7.2826703718 28.87100697 14.5933102886" version="1.1" xmlns="http://www.w3.org/2000/svg">
  <g transform="scale(1,-1)" stroke-linecap="round">
    <g fill="none" stroke="rgb(64,192,64)" stroke-width="0.05627876602334832" id="Visible">
      <line x1="6.5772753304" y1="2.9489655169" x2="-2.1282837369" y2="3.9498107732" />
      <path d="M -2.1282837369,3.9498107732 A 0.5,0.2702317230095818 180.0 0,0 -2.3064394902,3.9910471548" />
      <line x1="-2.3064394902" y1="3.9910471548" x2="-10.5007273118" y2="7.0187796572" />
      <path d="M -10.5007273118,7.0187796572 A 2.5,1.3511586150479091 0.0 0,1 -14.4116626558,5.9033723738" />
      <path d="M -14.4116626558,5.9033723738 A 2.5,1.3511586150479091 0.0 0,1 -13.3225979998,4.7879650903" />
      <line x1="-13.3225979998" y1="4.7879650903" x2="-4.4607508291" y2="1.5135740397" />
      <path d="M -4.4607508291,1.5135740397 A 0.5,0.2702317230095818 0.0 0,1 -3.9952306764,1.4852447159" />
      <line x1="-3.9952306764" y1="1.4852447159" x2="-0.5341592461" y2="2.2224698996" />
      <path d="M -0.5341592461,2.2224698996 A 0.5,0.2702317230095818 180.0 0,0 -0.2415770371,2.234761325" />
      <line x1="-0.2415770371" y1="2.234761325" x2="6.3594710412" y2="1.4359398114" />
      <path d="M 6.3594710412,1.4359398114 A 0.5,0.2702317230095818 180.0 0,0 6.4213279171,1.4261534851" />
      <path d="M -11.2925233089,5.6746046803 A 0.75,0.4053475845143727 180.0 0,0 -12.6616626558,5.9033723738" />
      <path d="M -12.6616626558,5.9033723738 A 0.75,0.4053475845143727 180.0 0,0 -11.1616626558,5.9033723738" />
      <path d="M -11.1616626558,5.9033723738 A 0.75,0.4053475845143727 180.0 0,0 -11.2925233089,5.6746046803" />
      <path d="M -2.2118128867,2.3193451766 A 0.75,0.4053475845143727 180.0 0,0 -3.5809522337,2.54811287" />
      <path d="M -3.5809522337,2.54811287 A 0.75,0.4053475845143727 180.0 0,0 -2.0809522337,2.54811287" />
      <path d="M -2.0809522337,2.54811287 A 0.75,0.4053475845143727 180.0 0,0 -2.2118128867,2.3193451766" />
      <path d="M 6.4348131733,-5.1813555191 A 0.5,0.2702317230095818 0.0 0,1 6.3594710412,-5.1687950331" />
      <line x1="6.3594710412" y1="-5.1687950331" x2="-0.2415770371" y2="-4.3699735195" />
      <path d="M -0.2415770371,-4.3699735195 A 0.5,0.2702317230095818 0.0 0,1 -0.5341592461,-4.3822649449" />
      <line x1="-0.5341592461" y1="-4.3822649449" x2="-3.9952306764" y2="-5.1194901286" />
      <path d="M -3.9952306764,-5.1194901286 A 0.5,0.2702317230095818 180.0 0,0 -4.4607508291,-5.0911608048" />
      <line x1="-4.4607508291" y1="-5.0911608048" x2="-13.3225979998" y2="-1.8167697541" />
      <path d="M -13.3225979998,-1.8167697541 A 2.5,1.3511586150479091 180.0 0,0 -14.4116626558,-0.7013624707" />
      <path d="M 6.4790181353,2.7397579435 A 5.49747406587666,0.9623720591666759 83.44171355354537 0,0 7.0403260803,3.4145407422" />
      <line x1="13.3258266719" y1="1.9526062177" x2="6.4790181353" y2="2.7397579435" />
      <path d="M 13.3258266719,-7.2825005337 A 5.49747406587665,0.9623720591666741 -96.55828644645463 0,1 13.8871346169,2.6273890163" />
      <path d="M 13.8871346169,2.6273890163 A 5.49747406587665,0.9623720591666741 -96.55828644645463 0,1 13.3258266719,1.9526062177" />
      <line x1="13.3258266719" y1="-7.2825005337" x2="6.4790181353" y2="-6.4953488079" />
      <line x1="6.4790181353" y1="-6.4953488079" x2="6.4124380934" y2="-6.2369701731" />
      <line x1="6.4124380934" y1="-6.2369701731" x2="6.4790181353" y2="-5.6402647054" />
      <line x1="6.4790181353" y1="-5.6402647054" x2="6.4124380934" y2="-5.3818860706" />
      <line x1="6.4124380934" y1="-5.3818860706" x2="6.4790181353" y2="-4.7851806029" />
      <line x1="6.4790181353" y1="-4.7851806029" x2="6.4124380934" y2="-4.5268019681" />
      <line x1="6.4124380934" y1="-4.5268019681" x2="6.4790181353" y2="-3.9300965004" />
      <line x1="6.4790181353" y1="-3.9300965004" x2="6.4124380934" y2="-3.6717178657" />
      <line x1="6.4124380934" y1="-3.6717178657" x2="6.4790181353" y2="-3.0750123979" />
      <line x1="6.4790181353" y1="-3.0750123979" x2="6.4124380934" y2="-2.8166337632" />
      <line x1="6.4124380934" y1="-2.8166337632" x2="6.4790181353" y2="-2.2199282954" />
      <line x1="6.4790181353" y1="-2.2199282954" x2="6.4124380934" y2="-1.9615496607" />
      <line x1="6.4124380934" y1="-1.9615496607" x2="6.4790181353" y2="-1.3648441929" />
      <line x1="6.4790181353" y1="-1.3648441929" x2="6.4124380934" y2="-1.1064655582" />
      <line x1="6.4124380934" y1="-1.1064655582" x2="6.4790181353" y2="-0.5097600904" />
      <line x1="6.4790181353" y1="-0.5097600904" x2="6.4124380934" y2="-0.2513814557" />
      <line x1="6.4124380934" y1="-0.2513814557" x2="6.4790181353" y2="0.3458065364" />
      <line x1="6.4790181353" y1="0.3458065364" x2="6.4124380934" y2="0.6046676955" />
      <line x1="6.4124380934" y1="0.6046676955" x2="6.4790181353" y2="1.2018556876" />
      <line x1="6.4790181353" y1="1.2018556876" x2="6.4124380934" y2="1.4607168466" />
      <line x1="6.4124380934" y1="1.4607168466" x2="6.4790181353" y2="2.0579048387" />
      <line x1="6.4790181353" y1="2.0579048387" x2="6.4124380934" y2="2.3167659978" />
      <line x1="6.4124380934" y1="2.3167659978" x2="6.4790181353" y2="2.7397579435" />
      <line x1="13.25924663" y1="1.5296142719" x2="13.3258266719" y2="1.9526062177" />
      <line x1="13.25924663" y1="1.5296142719" x2="6.4124380934" y2="2.3167659978" />
      <line x1="13.3258266719" y1="1.2707531128" x2="13.25924663" y2="1.5296142719" />
      <line x1="13.3258266719" y1="1.2707531128" x2="6.4790181353" y2="2.0579048387" />
      <line x1="13.25924663" y1="0.6735651208" x2="13.3258266719" y2="1.2707531128" />
      <line x1="13.25924663" y1="0.6735651208" x2="6.4124380934" y2="1.4607168466" />
      <line x1="13.3258266719" y1="0.4147039617" x2="13.25924663" y2="0.6735651208" />
      <line x1="13.3258266719" y1="0.4147039617" x2="6.4790181353" y2="1.2018556876" />
      <line x1="13.25924663" y1="-0.1824840304" x2="13.3258266719" y2="0.4147039617" />
      <line x1="13.25924663" y1="-0.1824840304" x2="6.4124380934" y2="0.6046676955" />
      <line x1="13.3258266719" y1="-0.4413451895" x2="13.25924663" y2="-0.1824840304" />
      <line x1="13.3258266719" y1="-0.4413451895" x2="6.4790181353" y2="0.3458065364" />
      <line x1="13.25924663" y1="-1.0385331815" x2="13.3258266719" y2="-0.4413451895" />
      <line x1="13.25924663" y1="-1.0385331815" x2="6.4124380934" y2="-0.2513814557" />
      <line x1="13.3258266719" y1="-1.2969118163" x2="13.25924663" y2="-1.0385331815" />
      <line x1="13.3258266719" y1="-1.2969118163" x2="6.4790181353" y2="-0.5097600904" />
      <line x1="13.25924663" y1="-1.893617284" x2="13.3258266719" y2="-1.2969118163" />
      <line x1="13.25924663" y1="-1.893617284" x2="6.4124380934" y2="-1.1064655582" />
      <line x1="13.3258266719" y1="-2.1519959188" x2="13.25924663" y2="-1.893617284" />
      <line x1="13.3258266719" y1="-2.1519959188" x2="6.4790181353" y2="-1.3648441929" />
      <line x1="13.25924663" y1="-2.7487013865" x2="13.3258266719" y2="-2.1519959188" />
      <line x1="13.25924663" y1="-2.7487013865" x2="6.4124380934" y2="-1.9615496607" />
      <line x1="13.3258266719" y1="-3.0070800213" x2="13.25924663" y2="-2.7487013865" />
      <line x1="13.3258266719" y1="-3.0070800213" x2="6.4790181353" y2="-2.2199282954" />
      <line x1="13.25924663" y1="-3.603785489" x2="13.3258266719" y2="-3.0070800213" />
      <line x1="13.25924663" y1="-3.603785489" x2="6.4124380934" y2="-2.8166337632" />
      <line x1="13.3258266719" y1="-3.8621641238" x2="13.25924663" y2="-3.603785489" />
      <line x1="13.3258266719" y1="-3.8621641238" x2="6.4790181353" y2="-3.0750123979" />
      <line x1="13.25924663" y1="-4.4588695915" x2="13.3258266719" y2="-3.8621641238" />
      <line x1="13.25924663" y1="-4.4588695915" x2="6.4124380934" y2="-3.6717178657" />
      <line x1="13.3258266719" y1="-4.7172482263" x2="13.25924663" y2="-4.4588695915" />
      <line x1="13.3258266719" y1="-4.7172482263" x2="6.4790181353" y2="-3.9300965004" />
      <line x1="13.25924663" y1="-5.313953694" x2="13.3258266719" y2="-4.7172482263" />
      <line x1="13.25924663" y1="-5.313953694" x2="6.4124380934" y2="-4.5268019681" />
      <line x1="13.3258266719" y1="-5.5723323288" x2="13.25924663" y2="-5.313953694" />
      <line x1="13.3258266719" y1="-5.5723323288" x2="6.4790181353" y2="-4.7851806029" />
      <line x1="13.25924663" y1="-6.1690377965" x2="13.3258266719" y2="-5.5723323288" />
      <line x1="13.25924663" y1="-6.1690377965" x2="6.4124380934" y2="-5.3818860706" />
      <line x1="13.3258266719" y1="-6.4274164313" x2="13.25924663" y2="-6.1690377965" />
      <line x1="13.3258266719" y1="-6.4274164313" x2="6.4790181353" y2="-5.6402647054" />
      <line x1="13.25924663" y1="-7.024121899" x2="13.3258266719" y2="-6.4274164313" />
      <line x1="13.25924663" y1="-7.024121899" x2="6.4124380934" y2="-6.2369701731" />
      <line x1="13.3258266719" y1="-7.2825005337" x2="13.25924663" y2="-7.024121899" />
      <line x1="-0.5341592461" y1="2.2224698996" x2="-0.5341592461" y2="-4.3822649449" />
      <line x1="-3.9952306764" y1="1.4852447159" x2="-3.9952306764" y2="-5.1194901286" />
      <line x1="-0.2415770371" y1="2.234761325" x2="-0.2415770371" y2="-4.3699735195" />
      <line x1="6.3594710412" y1="-5.1687950331" x2="6.3594710412" y2="1.4359398114" />
      <line x1="-13.3225979998" y1="-1.8167697541" x2="-13.3225979998" y2="4.7879650903" />
      <line x1="-4.4607508291" y1="1.5135740397" x2="-4.4607508291" y2="-5.0911608048" />
      <line x1="13.8871346169" y1="2.6273890163" x2="7.0403260803" y2="3.4145407422" />
      <line x1="-14.4116626558" y1="5.9033723738" x2="-14.4116626558" y2="-0.7013624707" />
    </g>
  </g>
</svg>